<svg xmlns="http://www.w3.org/2000/svg" width="512" height="512"><path d="M154.682 504.882c-1-.582-15.962-19.926-33.25-42.988L90 419.963V412.042l28.498-38.021L146.995 336l-28.497-38.02L90 259.958v-7.918l28.498-38.02L146.995 176l-28.497-38.02L90 99.958V92.037l31.452-41.958 31.453-41.958 1.982-1.06L156.869 6H416.728l2.636 2.636L422 11.273v489.454l-2.636 2.637-2.637 2.636-130.113-.03-130.114-.03ZM402 416v-70H166.023l-25.72 34.25-25.72 34.25v3l25.72 34.25 25.72 34.25H402Zm-155.107 47.626-6.606-2.333-4.676-3.217c-2.572-1.77-6.671-5.299-9.11-7.843l-4.432-4.626-3.01-5.646-3.009-5.647-1.51-6.407-1.51-6.407v-11l1.51-6.407 1.51-6.407 3.01-5.647 3.01-5.646 4.432-4.626c2.438-2.544 6.537-6.074 9.109-7.843l4.676-3.217 6.606-2.333 6.607-2.332h20l6.671 2.355c6.635 2.342 12.22 5.631 14.547 8.566l1.218 1.537.032 4.327.032 4.327-2.923 2.923-2.923 2.923h-6.929l-6.545-3.063-6.544-3.062H257.16l-5.1 2.194-5.101 2.195-4.785 5.235-4.786 5.236-1.694 5.247L234 412.23v7.54l1.695 5.248 1.694 5.247 4.786 5.236 4.785 5.235 5.077 2.185 5.078 2.184 5.783.028 5.783.027 3.91-1.629 3.909-1.629 3.5-3.383 3.5-3.384 2.697-.663 2.697-.662 3.57 1.178 3.57 1.179 1.483 2.867L299 441.9v7.093l-3.553 3.933c-1.954 2.163-5.666 5.274-8.25 6.914l-4.697 2.983-5.431 1.588-5.432 1.588-9.069-.021-9.068-.021zM402 256v-70H166.023l-25.72 34.25-25.72 34.25v3l25.72 34.25 25.72 34.25H402Zm-164.353 46.993L235 299.847v-87.694l2.589-3.076 2.589-3.077 17.66.01 17.662.01 5.021 2.338 5.02 2.338 3.397 3.396 3.396 3.396 2.455 5.363 2.456 5.363-.454 7.643-.453 7.643-1.626 3.117-1.625 3.116 2.5 2.349c1.374 1.291 3.885 5.164 5.58 8.606l3.08 6.257-.422 8.778-.422 8.777-2.898 5.32-2.898 5.318-3.331 2.925c-1.832 1.609-5.232 3.94-7.554 5.181L282.5 305.5l-21.103.32-21.102.32zm42.276-21.07 3.077-3.077v-8.401l-1.63-2.328-1.631-2.328-3.338-1.395-3.337-1.394H256v22h20.846zm-6.237-42.097L276 237.65v-6.302l-2.472-2.323-2.473-2.323-7.527-.483-7.528-.483V242H271.371zM402 96V26H166.023l-25.72 34.25-25.72 34.25v3l25.72 34.25 25.72 34.25H402Zm-175.077 47.077L224 140.154v-6.622l15.553-41.016L255.106 51.5l2.963-2.75 2.963-2.75h9.936l3.045 2.75 3.044 2.75 15.469 41 15.47 41 .001 3.327.002 3.327-2.923 2.923-2.922 2.923h-9.042l-2.453-2.25-2.452-2.25-2.691-7.25-2.69-7.25H249.174l-2.757 7.215-2.757 7.215-2.285 2.285L239.09 146H229.846zM272.34 99.25c-1.414-3.712-3.236-8.662-4.049-11-2.047-5.887-2.286-5.655-6.935 6.75l-4.123 11H274.91z" style="fill:#3c3ac5;fill-opacity:1"/></svg>