<svg xmlns="http://www.w3.org/2000/svg" width="590.762" height="536"><path d="m526.222 600.444.89.445z" style="fill:#dcdcf4;stroke:none" transform="translate(-38.667 -65.333)"/><path d="m524 600 1.333 1.333z" style="fill:#b5b4e9;stroke:none" transform="translate(-38.667 -65.333)"/><path d="M498.667 600v1.333H524z" style="fill:#8382da;stroke:none" transform="translate(-38.667 -65.333)"/><path d="m140 600 1.333 1.333L140 600m26.667 0 1.333 1.333z" style="fill:#b5b4e9;stroke:none" transform="translate(-38.667 -65.333)"/><path d="m533.333 598.667 1.334 1.333-1.334-1.333M138.667 600l1.333 1.333Z" style="fill:#dcdcf4;stroke:none" transform="translate(-38.667 -65.333)"/><path d="m532 598.667 1.333 1.333z" style="fill:#b5b4e9;stroke:none" transform="translate(-38.667 -65.333)"/><path d="m134.222 599.111.89.445-.89-.445m396 0 .89.445z" style="fill:#8382da;stroke:none" transform="translate(-38.667 -65.333)"/><path d="m132 598.667 1.333 1.333z" style="fill:#b5b4e9;stroke:none" transform="translate(-38.667 -65.333)"/><path d="m538.667 597.333 1.333 1.334-1.333-1.334m-408 1.334L132 600Z" style="fill:#dcdcf4;stroke:none" transform="translate(-38.667 -65.333)"/><path d="m128 597.333 1.333 1.334-1.333-1.334m408.889.445.889.444z" style="fill:#8382da;stroke:none" transform="translate(-38.667 -65.333)"/><path d="m126.667 597.333 1.333 1.334Z" style="fill:#b5b4e9;stroke:none" transform="translate(-38.667 -65.333)"/><path d="m542.667 596 1.333 1.333-1.333-1.333m-417.334 1.333 1.334 1.334z" style="fill:#dcdcf4;stroke:none" transform="translate(-38.667 -65.333)"/><path d="m124 596 1.333 1.333L124 596m417.333 0 1.334 1.333z" style="fill:#8382da;stroke:none" transform="translate(-38.667 -65.333)"/><path d="m122.667 596 1.333 1.333Z" style="fill:#b5b4e9;stroke:none" transform="translate(-38.667 -65.333)"/><path d="M546.667 594.667 548 596l-1.333-1.333M121.333 596l1.334 1.333z" style="fill:#dcdcf4;stroke:none" transform="translate(-38.667 -65.333)"/><path d="m545.333 594.667 1.334 1.333z" style="fill:#b5b4e9;stroke:none" transform="translate(-38.667 -65.333)"/><path d="m120 594.667 1.333 1.333-1.333-1.333m424 0 1.333 1.333z" style="fill:#8382da;stroke:none" transform="translate(-38.667 -65.333)"/><path d="M118.667 594.667 120 596Z" style="fill:#b5b4e9;stroke:none" transform="translate(-38.667 -65.333)"/><path d="m549.333 593.333 1.334 1.334-1.334-1.334m-432 1.334 1.334 1.333z" style="fill:#dcdcf4;stroke:none" transform="translate(-38.667 -65.333)"/><path d="m117.333 593.333 1.334 1.334-1.334-1.334m430.667 0 1.333 1.334z" style="fill:#8382da;stroke:none" transform="translate(-38.667 -65.333)"/><path d="m116 593.333 1.333 1.334z" style="fill:#b5b4e9;stroke:none" transform="translate(-38.667 -65.333)"/><path d="m552 592 1.333 1.333L552 592m-437.333 1.333 1.333 1.334Z" style="fill:#dcdcf4;stroke:none" transform="translate(-38.667 -65.333)"/><path d="m114.667 592 1.333 1.333-1.333-1.333m436 0 1.333 1.333z" style="fill:#8382da;stroke:none" transform="translate(-38.667 -65.333)"/><path d="m113.333 592 1.334 1.333z" style="fill:#b5b4e9;stroke:none" transform="translate(-38.667 -65.333)"/><path d="M554.667 590.667 556 592l-1.333-1.333M112 592l1.333 1.333z" style="fill:#dcdcf4;stroke:none" transform="translate(-38.667 -65.333)"/><path d="m112 590.667 1.333 1.333z" style="fill:#8382da;stroke:none" transform="translate(-38.667 -65.333)"/><path d="m556 589.333 1.333 1.334-1.333-1.334m-445.333 1.334L112 592Z" style="fill:#b5b4e9;stroke:none" transform="translate(-38.667 -65.333)"/><path d="m109.333 589.333 1.334 1.334-1.334-1.334m445.334 0L553.333 592z" style="fill:#8382da;stroke:none" transform="translate(-38.667 -65.333)"/><path d="m108 589.333 1.333 1.334z" style="fill:#dcdcf4;stroke:none" transform="translate(-38.667 -65.333)"/><path d="m106.667 588 1.333 1.333Z" style="fill:#b5b4e9;stroke:none" transform="translate(-38.667 -65.333)"/><path d="m560 586.667 1.333 1.333z" style="fill:#dcdcf4;stroke:none" transform="translate(-38.667 -65.333)"/><path d="m558.667 586.667-1.334 2.666z" style="fill:#8382da;stroke:none" transform="translate(-38.667 -65.333)"/><path d="m561.333 585.333 1.334 1.334z" style="fill:#b5b4e9;stroke:none" transform="translate(-38.667 -65.333)"/><path d="m104 585.333 2.667 2.667z" style="fill:#8382da;stroke:none" transform="translate(-38.667 -65.333)"/><path d="m101.333 584 2.667 2.667Z" style="fill:#dcdcf4;stroke:none" transform="translate(-38.667 -65.333)"/><path d="m97.333 580 4 4z" style="fill:#b5b4e9;stroke:none" transform="translate(-38.667 -65.333)"/><path d="m569.333 577.333-6.666 8z" style="fill:#8382da;stroke:none" transform="translate(-38.667 -65.333)"/><path d="M94.667 577.333 97.333 580z" style="fill:#dcdcf4;stroke:none" transform="translate(-38.667 -65.333)"/><path d="m570.667 576 1.333 1.333z" style="fill:#b5b4e9;stroke:none" transform="translate(-38.667 -65.333)"/><path d="m572 574.667 1.333 1.333z" style="fill:#dcdcf4;stroke:none" transform="translate(-38.667 -65.333)"/><path d="M93.333 574.667 96 577.333z" style="fill:#8382da;stroke:none" transform="translate(-38.667 -65.333)"/><path d="m92 573.333 1.333 1.334z" style="fill:#b5b4e9;stroke:none" transform="translate(-38.667 -65.333)"/><path d="M573.333 572 572 574.667z" style="fill:#8382da;stroke:none" transform="translate(-38.667 -65.333)"/><path d="M574.667 570.667 576 572l-1.333-1.333m-484 1.333L92 573.333z" style="fill:#dcdcf4;stroke:none" transform="translate(-38.667 -65.333)"/><path d="m574.667 569.333 1.333 1.334-1.333-1.334m-484 1.334L92 572z" style="fill:#8382da;stroke:none" transform="translate(-38.667 -65.333)"/><path d="m576 568 1.333 1.333L576 568m-486.667 1.333 1.334 1.334z" style="fill:#b5b4e9;stroke:none" transform="translate(-38.667 -65.333)"/><path d="m89.333 568 1.334 1.333z" style="fill:#8382da;stroke:none" transform="translate(-38.667 -65.333)"/><path d="m577.333 566.667 1.334 1.333z" style="fill:#dcdcf4;stroke:none" transform="translate(-38.667 -65.333)"/><path d="M88 566.667 89.333 568z" style="fill:#b5b4e9;stroke:none" transform="translate(-38.667 -65.333)"/><path d="m577.333 565.333 1.334 1.334z" style="fill:#8382da;stroke:none" transform="translate(-38.667 -65.333)"/><path d="m578.667 564 1.333 1.333-1.333-1.333m-492 1.333L88 566.667z" style="fill:#dcdcf4;stroke:none" transform="translate(-38.667 -65.333)"/><path d="M578.667 562.667 580 564l-1.333-1.333m-492 1.333L88 565.333z" style="fill:#8382da;stroke:none" transform="translate(-38.667 -65.333)"/><path d="m580 561.333 1.333 1.334-1.333-1.334m-494.667 1.334L86.667 564z" style="fill:#dcdcf4;stroke:none" transform="translate(-38.667 -65.333)"/><path d="m580 560 1.333 1.333L580 560m-494.667 1.333 1.334 1.334z" style="fill:#b5b4e9;stroke:none" transform="translate(-38.667 -65.333)"/><path d="m85.333 560 1.334 1.333z" style="fill:#8382da;stroke:none" transform="translate(-38.667 -65.333)"/><path d="m581.333 558.667 1.334 1.333z" style="fill:#dcdcf4;stroke:none" transform="translate(-38.667 -65.333)"/><path d="m581.333 557.333 1.334 1.334-1.334-1.334M84 558.667 85.333 560z" style="fill:#b5b4e9;stroke:none" transform="translate(-38.667 -65.333)"/><path d="m581.333 556 1.334 1.333-1.334-1.333M84 557.333l1.333 1.334z" style="fill:#8382da;stroke:none" transform="translate(-38.667 -65.333)"/><path d="M497.333 556v45.333h1.334z" style="fill:#b5b4e9;stroke:none" transform="translate(-38.667 -65.333)"/><path d="M166.667 556v44h-25.334v1.333l24.53-1.37 2.137-10.63z" style="fill:#8382da;stroke:none" transform="translate(-38.667 -65.333)"/><path d="M582.667 554.667 584 556l-1.333-1.333m-500 1.333L84 557.333z" style="fill:#dcdcf4;stroke:none" transform="translate(-38.667 -65.333)"/><path d="M517.333 554.667V556h4z" style="fill:#8382da;stroke:none" transform="translate(-38.667 -65.333)"/><path d="M498.667 554.667V556h18.666z" style="fill:#b5b4e9;stroke:none" transform="translate(-38.667 -65.333)"/><path d="M166.667 554.667 168 556l-1.333-1.333m330.666 0 1.334 1.333z" style="fill:#dcdcf4;stroke:none" transform="translate(-38.667 -65.333)"/><path d="M149.333 554.667V556h17.334z" style="fill:#b5b4e9;stroke:none" transform="translate(-38.667 -65.333)"/><path d="M144 554.667V556h5.333z" style="fill:#8382da;stroke:none" transform="translate(-38.667 -65.333)"/><path d="m582.667 553.333 1.333 1.334-1.333-1.334m-500 1.334L84 556z" style="fill:#b5b4e9;stroke:none" transform="translate(-38.667 -65.333)"/><path d="m524.889 553.778.889.444z" style="fill:#8382da;stroke:none" transform="translate(-38.667 -65.333)"/><path d="m522.667 553.333 1.333 1.334z" style="fill:#b5b4e9;stroke:none" transform="translate(-38.667 -65.333)"/><path d="m142.667 553.333 1.333 1.334Z" style="fill:#dcdcf4;stroke:none" transform="translate(-38.667 -65.333)"/><path d="m141.333 553.333 1.334 1.334z" style="fill:#b5b4e9;stroke:none" transform="translate(-38.667 -65.333)"/><path d="m528.889 552.444.889.445-.89-.445m53.779-.444 1.333 1.333-1.333-1.333m-500 1.333L84 554.667l-1.333-1.334m56.889.445.888.444z" style="fill:#8382da;stroke:none" transform="translate(-38.667 -65.333)"/><path d="m526.667 552 1.333 1.333z" style="fill:#dcdcf4;stroke:none" transform="translate(-38.667 -65.333)"/><path d="m137.333 552 1.334 1.333z" style="fill:#b5b4e9;stroke:none" transform="translate(-38.667 -65.333)"/><path d="m136 552 1.333 1.333z" style="fill:#8382da;stroke:none" transform="translate(-38.667 -65.333)"/><path d="M530.667 550.667 532 552z" style="fill:#b5b4e9;stroke:none" transform="translate(-38.667 -65.333)"/><path d="M134.667 550.667 136 552Z" style="fill:#dcdcf4;stroke:none" transform="translate(-38.667 -65.333)"/><path d="m133.333 550.667 1.334 1.333z" style="fill:#8382da;stroke:none" transform="translate(-38.667 -65.333)"/><path d="m584 549.333 1.333 1.334-1.333-1.334m-502.667 1.334L82.667 552z" style="fill:#b5b4e9;stroke:none" transform="translate(-38.667 -65.333)"/><path d="m533.333 549.333 1.334 1.334z" style="fill:#8382da;stroke:none" transform="translate(-38.667 -65.333)"/><path d="m532 549.333 1.333 1.334z" style="fill:#dcdcf4;stroke:none" transform="translate(-38.667 -65.333)"/><path d="m132 549.333 1.333 1.334z" style="fill:#b5b4e9;stroke:none" transform="translate(-38.667 -65.333)"/><path d="m81.333 549.333 1.334 1.334z" style="fill:#8382da;stroke:none" transform="translate(-38.667 -65.333)"/><path d="m130.667 548 1.333 1.333Z" style="fill:#dcdcf4;stroke:none" transform="translate(-38.667 -65.333)"/><path d="m584.444 547.556.445.888-.445-.888m-455.11.444 2.666 2.667Z" style="fill:#8382da;stroke:none" transform="translate(-38.667 -65.333)"/><path d="m128 546.667 1.333 1.333z" style="fill:#b5b4e9;stroke:none" transform="translate(-38.667 -65.333)"/><path d="M80 546.667 81.333 548z" style="fill:#dcdcf4;stroke:none" transform="translate(-38.667 -65.333)"/><path d="m80 545.333 1.333 1.334L80 545.333m457.333 0-2.666 4z" style="fill:#b5b4e9;stroke:none" transform="translate(-38.667 -65.333)"/><path d="m585.333 544 1.334 1.333z" style="fill:#dcdcf4;stroke:none" transform="translate(-38.667 -65.333)"/><path d="m80 544 1.333 1.333L80 544m45.333 0 2.667 2.667z" style="fill:#8382da;stroke:none" transform="translate(-38.667 -65.333)"/><path d="m585.333 542.667 1.334 1.333z" style="fill:#b5b4e9;stroke:none" transform="translate(-38.667 -65.333)"/><path d="m585.333 541.333 1.334 1.334-1.334-1.334M540 542.667l-1.333 2.666z" style="fill:#8382da;stroke:none" transform="translate(-38.667 -65.333)"/><path d="m540 541.333 1.333 1.334z" style="fill:#dcdcf4;stroke:none" transform="translate(-38.667 -65.333)"/><path d="m124 541.333 1.333 1.334z" style="fill:#b5b4e9;stroke:none" transform="translate(-38.667 -65.333)"/><path d="m541.333 540 1.334 1.333z" style="fill:#8382da;stroke:none" transform="translate(-38.667 -65.333)"/><path d="M78.667 540 80 541.333z" style="fill:#dcdcf4;stroke:none" transform="translate(-38.667 -65.333)"/><path d="M122.667 538.667 124 540Z" style="fill:#b5b4e9;stroke:none" transform="translate(-38.667 -65.333)"/><path d="m542.667 537.333 1.333 1.334z" style="fill:#8382da;stroke:none" transform="translate(-38.667 -65.333)"/><path d="m79.111 538.222.445.89z" style="fill:#b5b4e9;stroke:none" transform="translate(-38.667 -65.333)"/><path d="m587.111 536.889.445.889z" style="fill:#dcdcf4;stroke:none" transform="translate(-38.667 -65.333)"/><path d="m542.667 536 1.333 1.333z" style="fill:#b5b4e9;stroke:none" transform="translate(-38.667 -65.333)"/><path d="m121.333 536 1.334 1.333z" style="fill:#8382da;stroke:none" transform="translate(-38.667 -65.333)"/><path d="m121.333 534.667 1.334 1.333z" style="fill:#b5b4e9;stroke:none" transform="translate(-38.667 -65.333)"/><path d="m79.111 535.556.445.888z" style="fill:#8382da;stroke:none" transform="translate(-38.667 -65.333)"/><path d="m587.111 534.222.445.89z" style="fill:#b5b4e9;stroke:none" transform="translate(-38.667 -65.333)"/><path d="m544.444 532.889.445.889z" style="fill:#8382da;stroke:none" transform="translate(-38.667 -65.333)"/><path d="m544 530.667 1.333 1.333z" style="fill:#b5b4e9;stroke:none" transform="translate(-38.667 -65.333)"/><path d="M586.667 529.333v4H588l-1.333-4m-466.223 2.223.445.888z" style="fill:#8382da;stroke:none" transform="translate(-38.667 -65.333)"/><path d="m544 529.333 1.333 1.334z" style="fill:#dcdcf4;stroke:none" transform="translate(-38.667 -65.333)"/><path d="m120.444 528.889.445.889z" style="fill:#b5b4e9;stroke:none" transform="translate(-38.667 -65.333)"/><path d="m433.333 521.333 1.334 1.334-1.334-1.334m-194.666 1.334V524h6.666l-6.666-1.333m90.666 0V524h8l-8-1.333m90.667 0V524h6.667L420 522.667m-342.667 4v4h1.334l-1.334-4m42.667 0 1.333 1.333z" style="fill:#dcdcf4;stroke:none" transform="translate(-38.667 -65.333)"/><path d="m432 521.333 1.333 1.334z" style="fill:#b5b4e9;stroke:none" transform="translate(-38.667 -65.333)"/><path d="m415.556 521.778.888.444-.888-.444m14.666 0 .89.444z" style="fill:#8382da;stroke:none" transform="translate(-38.667 -65.333)"/><path d="m413.333 521.333 1.334 1.334z" style="fill:#b5b4e9;stroke:none" transform="translate(-38.667 -65.333)"/><path d="m342.667 521.333 1.333 1.334z" style="fill:#dcdcf4;stroke:none" transform="translate(-38.667 -65.333)"/><path d="m341.333 521.333 1.334 1.334z" style="fill:#b5b4e9;stroke:none" transform="translate(-38.667 -65.333)"/><path d="m326.222 521.778.89.444-.89-.444m13.778-.445 1.333 1.334z" style="fill:#8382da;stroke:none" transform="translate(-38.667 -65.333)"/><path d="m324 521.333 1.333 1.334z" style="fill:#b5b4e9;stroke:none" transform="translate(-38.667 -65.333)"/><path d="m322.667 521.333 1.333 1.334z" style="fill:#dcdcf4;stroke:none" transform="translate(-38.667 -65.333)"/><path d="m250.667 521.333 1.333 1.334z" style="fill:#b5b4e9;stroke:none" transform="translate(-38.667 -65.333)"/><path d="m234.222 521.778.89.444-.89-.444m14.667 0 .889.444z" style="fill:#8382da;stroke:none" transform="translate(-38.667 -65.333)"/><path d="m232 521.333 1.333 1.334z" style="fill:#b5b4e9;stroke:none" transform="translate(-38.667 -65.333)"/><path d="m230.667 521.333 1.333 1.334z" style="fill:#dcdcf4;stroke:none" transform="translate(-38.667 -65.333)"/><path d="m436 520 1.333 1.333z" style="fill:#b5b4e9;stroke:none" transform="translate(-38.667 -65.333)"/><path d="m410.667 520 1.333 1.333z" style="fill:#8382da;stroke:none" transform="translate(-38.667 -65.333)"/><path d="m346.667 520 1.333 1.333-1.333-1.333m62.666 0 1.334 1.333z" style="fill:#dcdcf4;stroke:none" transform="translate(-38.667 -65.333)"/><path d="m320 520 1.333 1.333L320 520m25.333 0 1.334 1.333z" style="fill:#8382da;stroke:none" transform="translate(-38.667 -65.333)"/><path d="m318.667 520 1.333 1.333z" style="fill:#dcdcf4;stroke:none" transform="translate(-38.667 -65.333)"/><path d="m254.667 520 1.333 1.333z" style="fill:#b5b4e9;stroke:none" transform="translate(-38.667 -65.333)"/><path d="m229.333 520 1.334 1.333-1.334-1.333m24 0 1.334 1.333z" style="fill:#8382da;stroke:none" transform="translate(-38.667 -65.333)"/><path d="M438.667 518.667 440 520l-1.333-1.333M228 520l1.333 1.333z" style="fill:#b5b4e9;stroke:none" transform="translate(-38.667 -65.333)"/><path d="m408 518.667 1.333 1.333z" style="fill:#8382da;stroke:none" transform="translate(-38.667 -65.333)"/><path d="m349.333 518.667 1.334 1.333-1.334-1.333m57.334 0L408 520z" style="fill:#dcdcf4;stroke:none" transform="translate(-38.667 -65.333)"/><path d="m317.333 518.667 1.334 1.333-1.334-1.333m30.667 0 1.333 1.333z" style="fill:#8382da;stroke:none" transform="translate(-38.667 -65.333)"/><path d="m257.333 518.667 1.334 1.333-1.334-1.333m58.667 0 1.333 1.333z" style="fill:#dcdcf4;stroke:none" transform="translate(-38.667 -65.333)"/><path d="m256 518.667 1.333 1.333z" style="fill:#8382da;stroke:none" transform="translate(-38.667 -65.333)"/><path d="m225.333 518.667 1.334 1.333z" style="fill:#b5b4e9;stroke:none" transform="translate(-38.667 -65.333)"/><path d="m441.333 517.333 1.334 1.334z" style="fill:#dcdcf4;stroke:none" transform="translate(-38.667 -65.333)"/><path d="m440 517.333 1.333 1.334z" style="fill:#8382da;stroke:none" transform="translate(-38.667 -65.333)"/><path d="m314.667 517.333 1.333 1.334-1.333-1.334m36 0 1.333 1.334z" style="fill:#b5b4e9;stroke:none" transform="translate(-38.667 -65.333)"/><path d="m224 517.333 1.333 1.334z" style="fill:#8382da;stroke:none" transform="translate(-38.667 -65.333)"/><path d="m401.333 514.667 2.667 2.666-2.667-2.666m-178.666 2.666 1.333 1.334z" style="fill:#dcdcf4;stroke:none" transform="translate(-38.667 -65.333)"/><path d="m312 514.667 2.667 2.666-2.667-2.666m41.333 0L352 517.333z" style="fill:#8382da;stroke:none" transform="translate(-38.667 -65.333)"/><path d="m262.667 514.667-1.334 2.666z" style="fill:#dcdcf4;stroke:none" transform="translate(-38.667 -65.333)"/><path d="m445.333 513.333-2.666 4 2.666-4M220 514.667l2.667 2.666z" style="fill:#b5b4e9;stroke:none" transform="translate(-38.667 -65.333)"/><path d="m401.333 513.333 5.334 5.334z" style="fill:#8382da;stroke:none" transform="translate(-38.667 -65.333)"/><path d="m310.667 513.333 1.333 1.334z" style="fill:#b5b4e9;stroke:none" transform="translate(-38.667 -65.333)"/><path d="m446.667 512 1.333 1.333-1.333-1.333m-228 1.333 1.333 1.334z" style="fill:#dcdcf4;stroke:none" transform="translate(-38.667 -65.333)"/><path d="m356 512-1.333 2.667L356 512m44 0 1.333 1.333z" style="fill:#b5b4e9;stroke:none" transform="translate(-38.667 -65.333)"/><path d="m309.333 512 1.334 1.333z" style="fill:#dcdcf4;stroke:none" transform="translate(-38.667 -65.333)"/><path d="m446.667 510.667-1.334 2.666 1.334-2.666m-228 1.333 1.333 1.333-1.333-1.333M264 512l-5.333 6.667z" style="fill:#8382da;stroke:none" transform="translate(-38.667 -65.333)"/><path d="M398.667 510.667 400 512z" style="fill:#dcdcf4;stroke:none" transform="translate(-38.667 -65.333)"/><path d="m309.333 510.667 1.334 1.333-1.334-1.333m46.667 0 1.333 1.333z" style="fill:#8382da;stroke:none" transform="translate(-38.667 -65.333)"/><path d="m265.333 510.667 1.334 1.333z" style="fill:#dcdcf4;stroke:none" transform="translate(-38.667 -65.333)"/><path d="m217.333 510.667 1.334 1.333z" style="fill:#b5b4e9;stroke:none" transform="translate(-38.667 -65.333)"/><path d="m448 509.333 1.333 1.334z" style="fill:#dcdcf4;stroke:none" transform="translate(-38.667 -65.333)"/><path d="m398.667 509.333 1.333 1.334z" style="fill:#8382da;stroke:none" transform="translate(-38.667 -65.333)"/><path d="m308 509.333 1.333 1.334-1.333-1.334m49.333 0 1.334 1.334z" style="fill:#b5b4e9;stroke:none" transform="translate(-38.667 -65.333)"/><path d="m217.333 509.333 1.334 1.334-1.334-1.334m48 0 1.334 1.334z" style="fill:#8382da;stroke:none" transform="translate(-38.667 -65.333)"/><path d="m216 509.333 1.333 1.334z" style="fill:#dcdcf4;stroke:none" transform="translate(-38.667 -65.333)"/><path d="m448 508 1.333 1.333z" style="fill:#8382da;stroke:none" transform="translate(-38.667 -65.333)"/><path d="m397.333 508 1.334 1.333z" style="fill:#dcdcf4;stroke:none" transform="translate(-38.667 -65.333)"/><path d="m308 508 1.333 1.333z" style="fill:#8382da;stroke:none" transform="translate(-38.667 -65.333)"/><path d="m266.667 508 1.333 1.333z" style="fill:#dcdcf4;stroke:none" transform="translate(-38.667 -65.333)"/><path d="m216 508 1.333 1.333z" style="fill:#b5b4e9;stroke:none" transform="translate(-38.667 -65.333)"/><path d="m449.333 506.667 1.334 1.333z" style="fill:#dcdcf4;stroke:none" transform="translate(-38.667 -65.333)"/><path d="M358.667 506.667 360 508l-1.333-1.333m38.666 0 1.334 1.333z" style="fill:#b5b4e9;stroke:none" transform="translate(-38.667 -65.333)"/><path d="M306.667 506.667 308 508z" style="fill:#dcdcf4;stroke:none" transform="translate(-38.667 -65.333)"/><path d="m216 506.667 1.333 1.333-1.333-1.333m50.667 0L268 508z" style="fill:#8382da;stroke:none" transform="translate(-38.667 -65.333)"/><path d="m449.333 505.333 1.334 1.334z" style="fill:#b5b4e9;stroke:none" transform="translate(-38.667 -65.333)"/><path d="m358.667 505.333 1.333 1.334z" style="fill:#8382da;stroke:none" transform="translate(-38.667 -65.333)"/><path d="m396 504 1.333 1.333z" style="fill:#dcdcf4;stroke:none" transform="translate(-38.667 -65.333)"/><path d="m307.111 504.889.445.889z" style="fill:#8382da;stroke:none" transform="translate(-38.667 -65.333)"/><path d="m268 504 1.333 1.333z" style="fill:#dcdcf4;stroke:none" transform="translate(-38.667 -65.333)"/><path d="m215.111 504.889.445.889z" style="fill:#b5b4e9;stroke:none" transform="translate(-38.667 -65.333)"/><path d="m449.778 503.556.444.888z" style="fill:#8382da;stroke:none" transform="translate(-38.667 -65.333)"/><path d="m396 502.667 1.333 1.333z" style="fill:#b5b4e9;stroke:none" transform="translate(-38.667 -65.333)"/><path d="m305.333 502.667 1.334 1.333-1.334-1.333m54.667 0 1.333 1.333z" style="fill:#dcdcf4;stroke:none" transform="translate(-38.667 -65.333)"/><path d="M214.667 502.667 216 504z" style="fill:#8382da;stroke:none" transform="translate(-38.667 -65.333)"/><path d="m451.111 502.222.445.89z" style="fill:#dcdcf4;stroke:none" transform="translate(-38.667 -65.333)"/><path d="m305.333 501.333 1.334 1.334-1.334-1.334m54.667 0 1.333 1.334z" style="fill:#b5b4e9;stroke:none" transform="translate(-38.667 -65.333)"/><path d="m396.444 500.889.445.889-.445-.89m-128 1.334.445.89z" style="fill:#8382da;stroke:none" transform="translate(-38.667 -65.333)"/><path d="m213.778 500.889.444.889z" style="fill:#dcdcf4;stroke:none" transform="translate(-38.667 -65.333)"/><path d="m451.111 499.556.445.888z" style="fill:#b5b4e9;stroke:none" transform="translate(-38.667 -65.333)"/><path d="m269.333 497.333 1.334 1.334z" style="fill:#dcdcf4;stroke:none" transform="translate(-38.667 -65.333)"/><path d="m213.778 498.222.444.89z" style="fill:#b5b4e9;stroke:none" transform="translate(-38.667 -65.333)"/><path d="M360 496v5.333h1.333z" style="fill:#8382da;stroke:none" transform="translate(-38.667 -65.333)"/><path d="m361.333 494.667 1.334 1.333z" style="fill:#dcdcf4;stroke:none" transform="translate(-38.667 -65.333)"/><path d="m361.333 493.333 1.334 1.334-1.334-1.334m-91.555 2.223.444.888z" style="fill:#b5b4e9;stroke:none" transform="translate(-38.667 -65.333)"/><path d="M452 489.333v5.334h1.333L452 489.333m-90.222 2.223.444.888z" style="fill:#dcdcf4;stroke:none" transform="translate(-38.667 -65.333)"/><path d="m361.333 489.333 1.334 1.334z" style="fill:#b5b4e9;stroke:none" transform="translate(-38.667 -65.333)"/><path d="M269.333 489.333v5.334h1.334z" style="fill:#8382da;stroke:none" transform="translate(-38.667 -65.333)"/><path d="m361.778 487.556.444.888z" style="fill:#dcdcf4;stroke:none" transform="translate(-38.667 -65.333)"/><path d="M450.667 485.333v13.334H452l-1.333-13.334m-237.334 1.334v10.666h1.334z" style="fill:#8382da;stroke:none" transform="translate(-38.667 -65.333)"/><path d="M394.667 485.333v12H396z" style="fill:#dcdcf4;stroke:none" transform="translate(-38.667 -65.333)"/><path d="M269.333 485.333v4h1.334z" style="fill:#b5b4e9;stroke:none" transform="translate(-38.667 -65.333)"/><path d="m269.333 484 1.334 1.333z" style="fill:#dcdcf4;stroke:none" transform="translate(-38.667 -65.333)"/><path d="M450.667 481.333v4H452l-1.333-4m-237.334 1.334v4h1.334z" style="fill:#b5b4e9;stroke:none" transform="translate(-38.667 -65.333)"/><path d="M305.333 481.333v20h1.334l-1.334-20m54.667 0V488h1.333z" style="fill:#8382da;stroke:none" transform="translate(-38.667 -65.333)"/><path d="m450.667 480 1.333 1.333z" style="fill:#dcdcf4;stroke:none" transform="translate(-38.667 -65.333)"/><path d="m396.444 480.889.445.889z" style="fill:#8382da;stroke:none" transform="translate(-38.667 -65.333)"/><path d="m305.333 480 1.334 1.333-1.334-1.333M360 480l1.333 1.333z" style="fill:#b5b4e9;stroke:none" transform="translate(-38.667 -65.333)"/><path d="m268 480 1.333 1.333z" style="fill:#8382da;stroke:none" transform="translate(-38.667 -65.333)"/><path d="m213.778 480.889.444.889z" style="fill:#dcdcf4;stroke:none" transform="translate(-38.667 -65.333)"/><path d="m449.333 478.667 1.334 1.333z" style="fill:#8382da;stroke:none" transform="translate(-38.667 -65.333)"/><path d="m396 478.667 1.333 1.333z" style="fill:#b5b4e9;stroke:none" transform="translate(-38.667 -65.333)"/><path d="m305.333 478.667 1.334 1.333-1.334-1.333m54.667 0 1.333 1.333z" style="fill:#dcdcf4;stroke:none" transform="translate(-38.667 -65.333)"/><path d="m268 478.667 1.333 1.333z" style="fill:#b5b4e9;stroke:none" transform="translate(-38.667 -65.333)"/><path d="m215.111 479.556.445.888z" style="fill:#8382da;stroke:none" transform="translate(-38.667 -65.333)"/><path d="m449.333 477.333 1.334 1.334z" style="fill:#b5b4e9;stroke:none" transform="translate(-38.667 -65.333)"/><path d="m306.667 477.333 1.333 1.334-1.333-1.334m52 0 1.333 1.334z" style="fill:#8382da;stroke:none" transform="translate(-38.667 -65.333)"/><path d="m268 477.333 1.333 1.334z" style="fill:#dcdcf4;stroke:none" transform="translate(-38.667 -65.333)"/><path d="m214.667 477.333 1.333 1.334z" style="fill:#b5b4e9;stroke:none" transform="translate(-38.667 -65.333)"/><path d="m449.333 476 1.334 1.333z" style="fill:#dcdcf4;stroke:none" transform="translate(-38.667 -65.333)"/><path d="m397.333 476 1.334 1.333z" style="fill:#8382da;stroke:none" transform="translate(-38.667 -65.333)"/><path d="m306.667 476 1.333 1.333-1.333-1.333m52 0 1.333 1.333z" style="fill:#b5b4e9;stroke:none" transform="translate(-38.667 -65.333)"/><path d="m266.667 476 1.333 1.333z" style="fill:#8382da;stroke:none" transform="translate(-38.667 -65.333)"/><path d="m214.667 476 1.333 1.333z" style="fill:#dcdcf4;stroke:none" transform="translate(-38.667 -65.333)"/><path d="m448 474.667 1.333 1.333z" style="fill:#8382da;stroke:none" transform="translate(-38.667 -65.333)"/><path d="m397.333 474.667 1.334 1.333z" style="fill:#b5b4e9;stroke:none" transform="translate(-38.667 -65.333)"/><path d="M306.667 474.667 308 476l-1.333-1.333m52 0L360 476z" style="fill:#dcdcf4;stroke:none" transform="translate(-38.667 -65.333)"/><path d="M266.667 474.667 268 476z" style="fill:#b5b4e9;stroke:none" transform="translate(-38.667 -65.333)"/><path d="m216 474.667 1.333 1.333z" style="fill:#8382da;stroke:none" transform="translate(-38.667 -65.333)"/><path d="m448 473.333 1.333 1.334z" style="fill:#b5b4e9;stroke:none" transform="translate(-38.667 -65.333)"/><path d="m308 473.333 1.333 1.334-1.333-1.334m49.333 0 1.334 1.334z" style="fill:#8382da;stroke:none" transform="translate(-38.667 -65.333)"/><path d="m216 473.333 1.333 1.334z" style="fill:#b5b4e9;stroke:none" transform="translate(-38.667 -65.333)"/><path d="m448 472 1.333 1.333z" style="fill:#dcdcf4;stroke:none" transform="translate(-38.667 -65.333)"/><path d="m446.667 472 1.333 1.333z" style="fill:#8382da;stroke:none" transform="translate(-38.667 -65.333)"/><path d="m398.667 472 1.333 1.333z" style="fill:#b5b4e9;stroke:none" transform="translate(-38.667 -65.333)"/><path d="m308 472 1.333 1.333L308 472m49.333 0 1.334 1.333z" style="fill:#dcdcf4;stroke:none" transform="translate(-38.667 -65.333)"/><path d="m217.333 472 1.334 1.333-1.334-1.333m48 0 1.334 1.333z" style="fill:#8382da;stroke:none" transform="translate(-38.667 -65.333)"/><path d="M446.667 470.667 448 472z" style="fill:#b5b4e9;stroke:none" transform="translate(-38.667 -65.333)"/><path d="m356 470.667 1.333 1.333-1.333-1.333m44 0 1.333 1.333z" style="fill:#8382da;stroke:none" transform="translate(-38.667 -65.333)"/><path d="m400 469.333 1.333 1.334-1.333-1.334m-182.667 1.334 1.334 1.333-1.334-1.333m48 0 1.334 1.333z" style="fill:#dcdcf4;stroke:none" transform="translate(-38.667 -65.333)"/><path d="M310.667 469.333 309.333 472z" style="fill:#8382da;stroke:none" transform="translate(-38.667 -65.333)"/><path d="m218.667 469.333 1.333 1.334z" style="fill:#b5b4e9;stroke:none" transform="translate(-38.667 -65.333)"/><path d="m310.667 468 1.333 1.333-1.333-1.333m44 0 1.333 1.333z" style="fill:#dcdcf4;stroke:none" transform="translate(-38.667 -65.333)"/><path d="m262.667 468 2.666 2.667z" style="fill:#b5b4e9;stroke:none" transform="translate(-38.667 -65.333)"/><path d="m220 468 1.333 1.333z" style="fill:#8382da;stroke:none" transform="translate(-38.667 -65.333)"/><path d="m312 466.667 1.333 1.333z" style="fill:#b5b4e9;stroke:none" transform="translate(-38.667 -65.333)"/><path d="m221.333 466.667 1.334 1.333-1.334-1.333m40 0 1.334 1.333z" style="fill:#8382da;stroke:none" transform="translate(-38.667 -65.333)"/><path d="m442.667 465.333 4 4z" style="fill:#dcdcf4;stroke:none" transform="translate(-38.667 -65.333)"/><path d="m441.333 465.333 5.334 5.334z" style="fill:#8382da;stroke:none" transform="translate(-38.667 -65.333)"/><path d="m352 465.333 2.667 2.667-2.667-2.667m52 0-2.667 4z" style="fill:#b5b4e9;stroke:none" transform="translate(-38.667 -65.333)"/><path d="m222.667 465.333 1.333 1.334-1.333-1.334m92 0 1.333 1.334z" style="fill:#8382da;stroke:none" transform="translate(-38.667 -65.333)"/><path d="M221.333 465.333 220 468z" style="fill:#dcdcf4;stroke:none" transform="translate(-38.667 -65.333)"/><path d="m440 464 1.333 1.333z" style="fill:#b5b4e9;stroke:none" transform="translate(-38.667 -65.333)"/><path d="m406.667 464 1.333 1.333z" style="fill:#8382da;stroke:none" transform="translate(-38.667 -65.333)"/><path d="m350.667 464 1.333 1.333-1.333-1.333m54.666 0 1.334 1.333z" style="fill:#dcdcf4;stroke:none" transform="translate(-38.667 -65.333)"/><path d="m316 464 1.333 1.333L316 464m33.333 0 2.667 2.667z" style="fill:#8382da;stroke:none" transform="translate(-38.667 -65.333)"/><path d="m314.667 464-1.334 2.667z" style="fill:#dcdcf4;stroke:none" transform="translate(-38.667 -65.333)"/><path d="m258.667 464 2.666 2.667z" style="fill:#b5b4e9;stroke:none" transform="translate(-38.667 -65.333)"/><path d="m257.333 464 1.334 1.333z" style="fill:#8382da;stroke:none" transform="translate(-38.667 -65.333)"/><path d="m224 464 1.333 1.333z" style="fill:#b5b4e9;stroke:none" transform="translate(-38.667 -65.333)"/><path d="M438.667 462.667 440 464z" style="fill:#dcdcf4;stroke:none" transform="translate(-38.667 -65.333)"/><path d="m409.333 462.667 1.334 1.333-1.334-1.333m28 0 1.334 1.333z" style="fill:#8382da;stroke:none" transform="translate(-38.667 -65.333)"/><path d="m348 462.667 1.333 1.333-1.333-1.333m60 0 1.333 1.333z" style="fill:#b5b4e9;stroke:none" transform="translate(-38.667 -65.333)"/><path d="M318.667 462.667 320 464l-1.333-1.333m28 0L348 464z" style="fill:#8382da;stroke:none" transform="translate(-38.667 -65.333)"/><path d="m256 462.667 1.333 1.333-1.333-1.333m61.333 0 1.334 1.333z" style="fill:#b5b4e9;stroke:none" transform="translate(-38.667 -65.333)"/><path d="m228 462.667 1.333 1.333-1.333-1.333m26.667 0L256 464z" style="fill:#8382da;stroke:none" transform="translate(-38.667 -65.333)"/><path d="M226.667 462.667 228 464z" style="fill:#b5b4e9;stroke:none" transform="translate(-38.667 -65.333)"/><path d="m436 461.333 1.333 1.334-1.333-1.334m-210.667 1.334 1.334 1.333z" style="fill:#dcdcf4;stroke:none" transform="translate(-38.667 -65.333)"/><path d="m434.667 461.333 1.333 1.334z" style="fill:#b5b4e9;stroke:none" transform="translate(-38.667 -65.333)"/><path d="m433.333 461.333 1.334 1.334z" style="fill:#8382da;stroke:none" transform="translate(-38.667 -65.333)"/><path d="M414.667 462.04c-19.786 4.573-24.532 34.802-13.797 49.94 7.29 10.28 20.942 12.34 32.463 9.28 19.833-5.267 23.312-37.528 11.476-51.868-7.048-8.54-19.86-9.73-30.142-7.353z" style="fill:#3c3ac5;stroke:none" transform="translate(-38.667 -65.333)"/><path d="m413.333 461.333 1.334 1.334z" style="fill:#8382da;stroke:none" transform="translate(-38.667 -65.333)"/><path d="m412 461.333 1.333 1.334z" style="fill:#b5b4e9;stroke:none" transform="translate(-38.667 -65.333)"/><path d="m345.333 461.333 1.334 1.334-1.334-1.334m65.334 0 1.333 1.334z" style="fill:#dcdcf4;stroke:none" transform="translate(-38.667 -65.333)"/><path d="m344 461.333 1.333 1.334z" style="fill:#b5b4e9;stroke:none" transform="translate(-38.667 -65.333)"/><path d="m342.667 461.333 1.333 1.334z" style="fill:#8382da;stroke:none" transform="translate(-38.667 -65.333)"/><path d="M324 462.043c-19.789 4.716-23.264 36.667-12.468 51.233 6.499 8.768 19.684 10.821 29.801 8.483 20.636-4.769 26.254-36.598 13.802-52.179-6.932-8.674-20.954-9.963-31.135-7.537z" style="fill:#3c3ac5;stroke:none" transform="translate(-38.667 -65.333)"/><path d="m322.667 461.333 1.333 1.334z" style="fill:#8382da;stroke:none" transform="translate(-38.667 -65.333)"/><path d="m321.333 461.333 1.334 1.334z" style="fill:#b5b4e9;stroke:none" transform="translate(-38.667 -65.333)"/><path d="m253.333 461.333 1.334 1.334-1.334-1.334m66.667 0 1.333 1.334z" style="fill:#dcdcf4;stroke:none" transform="translate(-38.667 -65.333)"/><path d="m252 461.333 1.333 1.334z" style="fill:#b5b4e9;stroke:none" transform="translate(-38.667 -65.333)"/><path d="m250.667 461.333 1.333 1.334z" style="fill:#8382da;stroke:none" transform="translate(-38.667 -65.333)"/><path d="M232 462.151c-32.95 8.889-18.89 69.633 18.667 59.278 19.93-5.495 25.424-36.82 12.774-51.956-7.04-8.424-21.308-10.055-31.441-7.322z" style="fill:#3c3ac5;stroke:none" transform="translate(-38.667 -65.333)"/><path d="m230.667 461.333 1.333 1.334z" style="fill:#8382da;stroke:none" transform="translate(-38.667 -65.333)"/><path d="m229.333 461.333 1.334 1.334z" style="fill:#b5b4e9;stroke:none" transform="translate(-38.667 -65.333)"/><path d="m431.556 460.444.888.445-.888-.445m-203.556.89 1.333 1.333z" style="fill:#dcdcf4;stroke:none" transform="translate(-38.667 -65.333)"/><path d="m428.889 460.444.889.445z" style="fill:#b5b4e9;stroke:none" transform="translate(-38.667 -65.333)"/><path d="M420 460v1.333h8z" style="fill:#8382da;stroke:none" transform="translate(-38.667 -65.333)"/><path d="m418.222 460.444.89.445z" style="fill:#b5b4e9;stroke:none" transform="translate(-38.667 -65.333)"/><path d="m340.889 460.444.889.445-.89-.445m74.668 0 .888.445z" style="fill:#dcdcf4;stroke:none" transform="translate(-38.667 -65.333)"/><path d="m338.222 460.444.89.445z" style="fill:#b5b4e9;stroke:none" transform="translate(-38.667 -65.333)"/><path d="M329.333 460v1.333h8z" style="fill:#8382da;stroke:none" transform="translate(-38.667 -65.333)"/><path d="m327.556 460.444.888.445z" style="fill:#b5b4e9;stroke:none" transform="translate(-38.667 -65.333)"/><path d="m248.889 460.444.889.445-.89-.445m76 0 .89.445z" style="fill:#dcdcf4;stroke:none" transform="translate(-38.667 -65.333)"/><path d="m246.222 460.444.89.445z" style="fill:#b5b4e9;stroke:none" transform="translate(-38.667 -65.333)"/><path d="M238.667 460v1.333h6.666z" style="fill:#8382da;stroke:none" transform="translate(-38.667 -65.333)"/><path d="m236.889 460.444.889.445z" style="fill:#b5b4e9;stroke:none" transform="translate(-38.667 -65.333)"/><path d="m234.222 460.444.89.445z" style="fill:#dcdcf4;stroke:none" transform="translate(-38.667 -65.333)"/><path d="M545.333 392v133.333h1.334v-92z" style="fill:#8382da;stroke:none" transform="translate(-38.667 -65.333)"/><path d="M77.333 389.333v137.334h1.334v-96z" style="fill:#b5b4e9;stroke:none" transform="translate(-38.667 -65.333)"/><path d="M588 388v4h1.333z" style="fill:#dcdcf4;stroke:none" transform="translate(-38.667 -65.333)"/><path d="M545.333 388v4h1.334z" style="fill:#b5b4e9;stroke:none" transform="translate(-38.667 -65.333)"/><path d="M118.667 388v5.333H120Z" style="fill:#8382da;stroke:none" transform="translate(-38.667 -65.333)"/><path d="m545.333 386.667 1.334 1.333z" style="fill:#dcdcf4;stroke:none" transform="translate(-38.667 -65.333)"/><path d="m119.111 386.222.445.89-.445-.89m469.333 0 .445.89z" style="fill:#b5b4e9;stroke:none" transform="translate(-38.667 -65.333)"/><path d="m588.444 383.556.445.888-.445-.888m-511.11 1.777v4h1.333z" style="fill:#8382da;stroke:none" transform="translate(-38.667 -65.333)"/><path d="M76 382.667 77.333 384z" style="fill:#dcdcf4;stroke:none" transform="translate(-38.667 -65.333)"/><path d="m547.111 382.222.445.89z" style="fill:#8382da;stroke:none" transform="translate(-38.667 -65.333)"/><path d="M118.667 381.333v4H120Z" style="fill:#dcdcf4;stroke:none" transform="translate(-38.667 -65.333)"/><path d="m547.111 379.556.445.888-.445-.888m42.222.444 1.334 1.333-1.334-1.333M76 381.333l1.333 1.334z" style="fill:#b5b4e9;stroke:none" transform="translate(-38.667 -65.333)"/><path d="m589.778 378.222.444.89-.444-.89m-513.334 1.334.445.888-.445-.888m41.334 0 .444.888z" style="fill:#8382da;stroke:none" transform="translate(-38.667 -65.333)"/><path d="m590.667 376 1.333 1.333-1.333-1.333m-516 1.333L76 378.667z" style="fill:#b5b4e9;stroke:none" transform="translate(-38.667 -65.333)"/><path d="m547.111 376.889.445.889z" style="fill:#dcdcf4;stroke:none" transform="translate(-38.667 -65.333)"/><path d="m117.778 376.889.444.889z" style="fill:#b5b4e9;stroke:none" transform="translate(-38.667 -65.333)"/><path d="M590.667 374.667 592 376l-1.333-1.333m-516 1.333L76 377.333z" style="fill:#8382da;stroke:none" transform="translate(-38.667 -65.333)"/><path d="M73.333 374.667 74.667 376z" style="fill:#dcdcf4;stroke:none" transform="translate(-38.667 -65.333)"/><path d="m592 373.333 1.333 1.334z" style="fill:#b5b4e9;stroke:none" transform="translate(-38.667 -65.333)"/><path d="m548.444 374.222.445.89z" style="fill:#8382da;stroke:none" transform="translate(-38.667 -65.333)"/><path d="m117.778 374.222.444.89z" style="fill:#dcdcf4;stroke:none" transform="translate(-38.667 -65.333)"/><path d="m592 372 1.333 1.333L592 372m-518.667 1.333 1.334 1.334z" style="fill:#8382da;stroke:none" transform="translate(-38.667 -65.333)"/><path d="m548 372 1.333 1.333z" style="fill:#b5b4e9;stroke:none" transform="translate(-38.667 -65.333)"/><path d="m116 372 1.333 1.333z" style="fill:#8382da;stroke:none" transform="translate(-38.667 -65.333)"/><path d="m72 372 1.333 1.333z" style="fill:#dcdcf4;stroke:none" transform="translate(-38.667 -65.333)"/><path d="m593.333 370.667 1.334 1.333z" style="fill:#b5b4e9;stroke:none" transform="translate(-38.667 -65.333)"/><path d="M72 370.667 73.333 372z" style="fill:#8382da;stroke:none" transform="translate(-38.667 -65.333)"/><path d="m548.444 370.222.445.89-.445-.89m46.223-.889 1.333 1.334z" style="fill:#dcdcf4;stroke:none" transform="translate(-38.667 -65.333)"/><path d="M70.667 369.333 72 370.667l-1.333-1.334m45.777.89.445.888z" style="fill:#b5b4e9;stroke:none" transform="translate(-38.667 -65.333)"/><path d="m549.333 368 1.334 1.333z" style="fill:#8382da;stroke:none" transform="translate(-38.667 -65.333)"/><path d="m116 368 1.333 1.333z" style="fill:#dcdcf4;stroke:none" transform="translate(-38.667 -65.333)"/><path d="m596 366.667-1.333 2.666z" style="fill:#8382da;stroke:none" transform="translate(-38.667 -65.333)"/><path d="m549.333 366.667 1.334 1.333z" style="fill:#b5b4e9;stroke:none" transform="translate(-38.667 -65.333)"/><path d="M69.333 366.667 70.667 368l-1.334-1.333m45.334 0L116 368z" style="fill:#8382da;stroke:none" transform="translate(-38.667 -65.333)"/><path d="m597.333 365.333 1.334 1.334z" style="fill:#b5b4e9;stroke:none" transform="translate(-38.667 -65.333)"/><path d="m549.333 365.333 1.334 1.334z" style="fill:#dcdcf4;stroke:none" transform="translate(-38.667 -65.333)"/><path d="m114.667 365.333 1.333 1.334Z" style="fill:#b5b4e9;stroke:none" transform="translate(-38.667 -65.333)"/><path d="m550.667 364 1.333 1.333-1.333-1.333M68 365.333l1.333 1.334z" style="fill:#8382da;stroke:none" transform="translate(-38.667 -65.333)"/><path d="m114.667 364 1.333 1.333Z" style="fill:#dcdcf4;stroke:none" transform="translate(-38.667 -65.333)"/><path d="M66.667 364 68 365.333z" style="fill:#8382da;stroke:none" transform="translate(-38.667 -65.333)"/><path d="m601.333 362.667 1.334 1.333-1.334-1.333m-536 1.333 5.334 5.333z" style="fill:#dcdcf4;stroke:none" transform="translate(-38.667 -65.333)"/><path d="m600 362.667-1.333 2.666z" style="fill:#8382da;stroke:none" transform="translate(-38.667 -65.333)"/><path d="M550.667 362.667 552 364z" style="fill:#b5b4e9;stroke:none" transform="translate(-38.667 -65.333)"/><path d="m113.333 362.667 1.334 1.333z" style="fill:#8382da;stroke:none" transform="translate(-38.667 -65.333)"/><path d="m602.667 361.333 1.333 1.334-1.333-1.334M64 362.667 65.333 364z" style="fill:#b5b4e9;stroke:none" transform="translate(-38.667 -65.333)"/><path d="m550.667 361.333 1.333 1.334z" style="fill:#dcdcf4;stroke:none" transform="translate(-38.667 -65.333)"/><path d="m113.333 361.333 1.334 1.334z" style="fill:#b5b4e9;stroke:none" transform="translate(-38.667 -65.333)"/><path d="M62.667 361.333 64 362.667z" style="fill:#8382da;stroke:none" transform="translate(-38.667 -65.333)"/><path d="m61.333 361.333 1.334 1.334z" style="fill:#dcdcf4;stroke:none" transform="translate(-38.667 -65.333)"/><path d="m605.333 360 1.334 1.333z" style="fill:#b5b4e9;stroke:none" transform="translate(-38.667 -65.333)"/><path d="m552 360 1.333 1.333L552 360m52 0 1.333 1.333z" style="fill:#8382da;stroke:none" transform="translate(-38.667 -65.333)"/><path d="m113.333 360 1.334 1.333z" style="fill:#dcdcf4;stroke:none" transform="translate(-38.667 -65.333)"/><path d="m60 360 1.333 1.333z" style="fill:#b5b4e9;stroke:none" transform="translate(-38.667 -65.333)"/><path d="m609.333 358.667 1.334 1.333-1.334-1.333M58.667 360 60 361.333z" style="fill:#dcdcf4;stroke:none" transform="translate(-38.667 -65.333)"/><path d="m607.556 359.111.888.445z" style="fill:#8382da;stroke:none" transform="translate(-38.667 -65.333)"/><path d="m552 358.667 1.333 1.333z" style="fill:#b5b4e9;stroke:none" transform="translate(-38.667 -65.333)"/><path d="M57.333 358.667 58.667 360l-1.334-1.333m54.667 0 1.333 1.333z" style="fill:#8382da;stroke:none" transform="translate(-38.667 -65.333)"/><path d="M56 358.667 57.333 360z" style="fill:#b5b4e9;stroke:none" transform="translate(-38.667 -65.333)"/><path d="m614.667 357.333 1.333 1.334z" style="fill:#dcdcf4;stroke:none" transform="translate(-38.667 -65.333)"/><path d="m613.333 357.333 1.334 1.334z" style="fill:#b5b4e9;stroke:none" transform="translate(-38.667 -65.333)"/><path d="m553.333 357.333 1.334 1.334-1.334-1.334m58.223.445.888.444z" style="fill:#8382da;stroke:none" transform="translate(-38.667 -65.333)"/><path d="m112 357.333 1.333 1.334z" style="fill:#b5b4e9;stroke:none" transform="translate(-38.667 -65.333)"/><path d="m53.333 357.333 1.334 1.334z" style="fill:#8382da;stroke:none" transform="translate(-38.667 -65.333)"/><path d="m52 357.333 1.333 1.334z" style="fill:#b5b4e9;stroke:none" transform="translate(-38.667 -65.333)"/><path d="M50.667 357.333 52 358.667z" style="fill:#dcdcf4;stroke:none" transform="translate(-38.667 -65.333)"/><path d="M617.333 356v1.333h4z" style="fill:#8382da;stroke:none" transform="translate(-38.667 -65.333)"/><path d="m553.333 356 1.334 1.333z" style="fill:#b5b4e9;stroke:none" transform="translate(-38.667 -65.333)"/><path d="M44 356v1.333h5.333L44 356m66.667 0 1.333 1.333z" style="fill:#8382da;stroke:none" transform="translate(-38.667 -65.333)"/><path d="M38.667 356v1.333H44z" style="fill:#b5b4e9;stroke:none" transform="translate(-38.667 -65.333)"/><path d="M554.667 354.667 556 356z" style="fill:#8382da;stroke:none" transform="translate(-38.667 -65.333)"/><path d="m554.667 353.333 1.333 1.334-1.333-1.334m-444 1.334L112 356Z" style="fill:#b5b4e9;stroke:none" transform="translate(-38.667 -65.333)"/><path d="m556 352 1.333 1.333L556 352m-446.667 1.333 1.334 1.334z" style="fill:#8382da;stroke:none" transform="translate(-38.667 -65.333)"/><path d="m556 350.667 1.333 1.333-1.333-1.333M109.333 352l1.334 1.333z" style="fill:#dcdcf4;stroke:none" transform="translate(-38.667 -65.333)"/><path d="m557.333 349.333 1.334 1.334z" style="fill:#b5b4e9;stroke:none" transform="translate(-38.667 -65.333)"/><path d="m106.667 349.333 2.666 2.667z" style="fill:#8382da;stroke:none" transform="translate(-38.667 -65.333)"/><path d="m106.667 348 1.333 1.333Z" style="fill:#dcdcf4;stroke:none" transform="translate(-38.667 -65.333)"/><path d="m104 345.333 2.667 2.667z" style="fill:#b5b4e9;stroke:none" transform="translate(-38.667 -65.333)"/><path d="m566.667 341.333 1.333 1.334-1.333-1.334m-4 2.667-4 5.333z" style="fill:#8382da;stroke:none" transform="translate(-38.667 -65.333)"/><path d="M565.333 341.333 564 344z" style="fill:#b5b4e9;stroke:none" transform="translate(-38.667 -65.333)"/><path d="m100 341.333 4 4z" style="fill:#dcdcf4;stroke:none" transform="translate(-38.667 -65.333)"/><path d="m568 340 1.333 1.333L568 340m-469.333 1.333 2.666 2.667z" style="fill:#8382da;stroke:none" transform="translate(-38.667 -65.333)"/><path d="m566.667 340 1.333 1.333z" style="fill:#dcdcf4;stroke:none" transform="translate(-38.667 -65.333)"/><path d="m97.333 340 1.334 1.333z" style="fill:#b5b4e9;stroke:none" transform="translate(-38.667 -65.333)"/><path d="M570.667 338.667 572 340l-1.333-1.333M96 340l1.333 1.333z" style="fill:#8382da;stroke:none" transform="translate(-38.667 -65.333)"/><path d="M96 338.667 97.333 340 96 338.667m473.333 0 1.334 1.333z" style="fill:#dcdcf4;stroke:none" transform="translate(-38.667 -65.333)"/><path d="M94.667 338.667 96 340z" style="fill:#b5b4e9;stroke:none" transform="translate(-38.667 -65.333)"/><path d="m573.333 337.333 1.334 1.334z" style="fill:#8382da;stroke:none" transform="translate(-38.667 -65.333)"/><path d="m93.333 337.333 1.334 1.334-1.334-1.334m478.667 0 1.333 1.334z" style="fill:#dcdcf4;stroke:none" transform="translate(-38.667 -65.333)"/><path d="m576 336 1.333 1.333L576 336m-484 1.333 1.333 1.334z" style="fill:#b5b4e9;stroke:none" transform="translate(-38.667 -65.333)"/><path d="m574.667 336 1.333 1.333z" style="fill:#dcdcf4;stroke:none" transform="translate(-38.667 -65.333)"/><path d="m89.333 336 1.334 1.333z" style="fill:#b5b4e9;stroke:none" transform="translate(-38.667 -65.333)"/><path d="m580.889 335.111.889.445-.89-.445M88 336l1.333 1.333z" style="fill:#8382da;stroke:none" transform="translate(-38.667 -65.333)"/><path d="M578.667 334.667 580 336z" style="fill:#dcdcf4;stroke:none" transform="translate(-38.667 -65.333)"/><path d="M85.333 334.667 86.667 336z" style="fill:#b5b4e9;stroke:none" transform="translate(-38.667 -65.333)"/><path d="m586.667 332-1.334 2.667H588L586.667 332M84 334.667 85.333 336z" style="fill:#8382da;stroke:none" transform="translate(-38.667 -65.333)"/><path d="M585.333 332 584 334.667z" style="fill:#b5b4e9;stroke:none" transform="translate(-38.667 -65.333)"/><path d="m80 332 2.667 2.667L80 332m504 0 1.333 1.333z" style="fill:#dcdcf4;stroke:none" transform="translate(-38.667 -65.333)"/><path d="m78.667 332 2.666 2.667z" style="fill:#b5b4e9;stroke:none" transform="translate(-38.667 -65.333)"/><path d="m581.333 330.667 1.334 1.333-1.334-1.333m-504 1.333L80 334.667z" style="fill:#8382da;stroke:none" transform="translate(-38.667 -65.333)"/><path d="M84 330.667 85.333 332 84 330.667m496 0 1.333 1.333z" style="fill:#b5b4e9;stroke:none" transform="translate(-38.667 -65.333)"/><path d="m577.333 329.333 1.334 1.334-1.334-1.334m-494.666 1.334L84 332z" style="fill:#8382da;stroke:none" transform="translate(-38.667 -65.333)"/><path d="m576 329.333 1.333 1.334z" style="fill:#dcdcf4;stroke:none" transform="translate(-38.667 -65.333)"/><path d="m88 329.333 1.333 1.334z" style="fill:#b5b4e9;stroke:none" transform="translate(-38.667 -65.333)"/><path d="m574.667 328 1.333 1.333-1.333-1.333m-488 1.333L88 330.667z" style="fill:#8382da;stroke:none" transform="translate(-38.667 -65.333)"/><path d="m573.333 328 1.334 1.333z" style="fill:#b5b4e9;stroke:none" transform="translate(-38.667 -65.333)"/><path d="m92 328 1.333 1.333z" style="fill:#dcdcf4;stroke:none" transform="translate(-38.667 -65.333)"/><path d="M90.667 328 92 329.333z" style="fill:#b5b4e9;stroke:none" transform="translate(-38.667 -65.333)"/><path d="m572 326.667 1.333 1.333z" style="fill:#8382da;stroke:none" transform="translate(-38.667 -65.333)"/><path d="M93.333 326.667 94.667 328l-1.334-1.333m477.334 0L572 328z" style="fill:#b5b4e9;stroke:none" transform="translate(-38.667 -65.333)"/><path d="m569.333 325.333 1.334 1.334z" style="fill:#8382da;stroke:none" transform="translate(-38.667 -65.333)"/><path d="m568 325.333 1.333 1.334z" style="fill:#dcdcf4;stroke:none" transform="translate(-38.667 -65.333)"/><path d="m96 325.333 1.333 1.334z" style="fill:#b5b4e9;stroke:none" transform="translate(-38.667 -65.333)"/><path d="M94.667 325.333 96 326.667z" style="fill:#8382da;stroke:none" transform="translate(-38.667 -65.333)"/><path d="m566.667 324 1.333 1.333z" style="fill:#b5b4e9;stroke:none" transform="translate(-38.667 -65.333)"/><path d="m100 322.667 1.333 1.333z" style="fill:#dcdcf4;stroke:none" transform="translate(-38.667 -65.333)"/><path d="m98.667 322.667-1.334 2.666z" style="fill:#8382da;stroke:none" transform="translate(-38.667 -65.333)"/><path d="m561.333 320 2.667 2.667z" style="fill:#dcdcf4;stroke:none" transform="translate(-38.667 -65.333)"/><path d="m105.333 317.333-4 5.334z" style="fill:#b5b4e9;stroke:none" transform="translate(-38.667 -65.333)"/><path d="m558.667 316 8 8z" style="fill:#8382da;stroke:none" transform="translate(-38.667 -65.333)"/><path d="m557.333 314.667 1.334 1.333z" style="fill:#b5b4e9;stroke:none" transform="translate(-38.667 -65.333)"/><path d="m106.667 314.667-1.334 2.666z" style="fill:#8382da;stroke:none" transform="translate(-38.667 -65.333)"/><path d="m556 313.333 1.333 1.334z" style="fill:#dcdcf4;stroke:none" transform="translate(-38.667 -65.333)"/><path d="M626.667 312v44h-5.334v1.333c10.63-1.774 8.939-36.741 5.334-45.333M108 313.333l1.333 1.334z" style="fill:#b5b4e9;stroke:none" transform="translate(-38.667 -65.333)"/><path d="m556 312 1.333 1.333z" style="fill:#8382da;stroke:none" transform="translate(-38.667 -65.333)"/><path d="m109.333 312 1.334 1.333z" style="fill:#dcdcf4;stroke:none" transform="translate(-38.667 -65.333)"/><path d="M554.667 310.667 556 312z" style="fill:#b5b4e9;stroke:none" transform="translate(-38.667 -65.333)"/><path d="m109.333 310.667 1.334 1.333z" style="fill:#8382da;stroke:none" transform="translate(-38.667 -65.333)"/><path d="M620 309.333v1.334l8 1.333z" style="fill:#dcdcf4;stroke:none" transform="translate(-38.667 -65.333)"/><path d="m618.222 309.778.89.444z" style="fill:#b5b4e9;stroke:none" transform="translate(-38.667 -65.333)"/><path d="m554.667 309.333 1.333 1.334-1.333-1.334m60.889.445.888.444z" style="fill:#8382da;stroke:none" transform="translate(-38.667 -65.333)"/><path d="m110.667 309.333 1.333 1.334Z" style="fill:#dcdcf4;stroke:none" transform="translate(-38.667 -65.333)"/><path d="m50.222 309.778.89.444z" style="fill:#8382da;stroke:none" transform="translate(-38.667 -65.333)"/><path d="m47.556 309.778.888.444z" style="fill:#b5b4e9;stroke:none" transform="translate(-38.667 -65.333)"/><path d="m612 308 1.333 1.333L612 308m-573.333 1.333v1.334h8z" style="fill:#dcdcf4;stroke:none" transform="translate(-38.667 -65.333)"/><path d="m610.667 308 1.333 1.333z" style="fill:#b5b4e9;stroke:none" transform="translate(-38.667 -65.333)"/><path d="m609.333 308 1.334 1.333z" style="fill:#8382da;stroke:none" transform="translate(-38.667 -65.333)"/><path d="m553.333 308 1.334 1.333z" style="fill:#b5b4e9;stroke:none" transform="translate(-38.667 -65.333)"/><path d="m55.556 308.444.888.445-.888-.445m55.11-.444 1.334 1.333Z" style="fill:#8382da;stroke:none" transform="translate(-38.667 -65.333)"/><path d="m53.333 308 1.334 1.333z" style="fill:#b5b4e9;stroke:none" transform="translate(-38.667 -65.333)"/><path d="m608 306.667 1.333 1.333z" style="fill:#dcdcf4;stroke:none" transform="translate(-38.667 -65.333)"/><path d="m553.333 306.667 1.334 1.333-1.334-1.333m53.334 0L608 308z" style="fill:#8382da;stroke:none" transform="translate(-38.667 -65.333)"/><path d="m112 306.667 1.333 1.333z" style="fill:#dcdcf4;stroke:none" transform="translate(-38.667 -65.333)"/><path d="M58.667 306.667 60 308z" style="fill:#8382da;stroke:none" transform="translate(-38.667 -65.333)"/><path d="M57.333 306.667 58.667 308z" style="fill:#b5b4e9;stroke:none" transform="translate(-38.667 -65.333)"/><path d="m605.333 305.333 1.334 1.334z" style="fill:#dcdcf4;stroke:none" transform="translate(-38.667 -65.333)"/><path d="m604 305.333 1.333 1.334z" style="fill:#8382da;stroke:none" transform="translate(-38.667 -65.333)"/><path d="m112 305.333 1.333 1.334-1.333-1.334m440 0 1.333 1.334z" style="fill:#b5b4e9;stroke:none" transform="translate(-38.667 -65.333)"/><path d="m61.333 305.333 1.334 1.334z" style="fill:#8382da;stroke:none" transform="translate(-38.667 -65.333)"/><path d="m60 305.333 1.333 1.334z" style="fill:#b5b4e9;stroke:none" transform="translate(-38.667 -65.333)"/><path d="m602.667 304 1.333 1.333z" style="fill:#dcdcf4;stroke:none" transform="translate(-38.667 -65.333)"/><path d="m552 304 1.333 1.333L552 304m49.333 0 1.334 1.333z" style="fill:#8382da;stroke:none" transform="translate(-38.667 -65.333)"/><path d="m113.333 304 1.334 1.333z" style="fill:#dcdcf4;stroke:none" transform="translate(-38.667 -65.333)"/><path d="m112 304 1.333 1.333z" style="fill:#8382da;stroke:none" transform="translate(-38.667 -65.333)"/><path d="M62.667 304 64 305.333z" style="fill:#b5b4e9;stroke:none" transform="translate(-38.667 -65.333)"/><path d="M550.667 302.667 552 304z" style="fill:#dcdcf4;stroke:none" transform="translate(-38.667 -65.333)"/><path d="m113.333 302.667 1.334 1.333z" style="fill:#b5b4e9;stroke:none" transform="translate(-38.667 -65.333)"/><path d="M64 302.667 65.333 304z" style="fill:#dcdcf4;stroke:none" transform="translate(-38.667 -65.333)"/><path d="m550.667 301.333 1.333 1.334z" style="fill:#b5b4e9;stroke:none" transform="translate(-38.667 -65.333)"/><path d="m550.667 300 1.333 1.333-1.333-1.333m-437.334 1.333 1.334 1.334z" style="fill:#8382da;stroke:none" transform="translate(-38.667 -65.333)"/><path d="m549.333 298.667 1.334 1.333-1.334-1.333M114.667 300l1.333 1.333Z" style="fill:#dcdcf4;stroke:none" transform="translate(-38.667 -65.333)"/><path d="m549.333 297.333 1.334 1.334-1.334-1.334m45.334 0 6.666 6.667-6.666-6.667m-480 1.334L116 300Z" style="fill:#b5b4e9;stroke:none" transform="translate(-38.667 -65.333)"/><path d="m115.111 296.889.445.889-.445-.89M593.333 296l1.334 1.333-1.334-1.333m-522.666 1.333-6.667 8z" style="fill:#8382da;stroke:none" transform="translate(-38.667 -65.333)"/><path d="m593.333 294.667 1.334 1.333-1.334-1.333M70.667 296 72 297.333z" style="fill:#dcdcf4;stroke:none" transform="translate(-38.667 -65.333)"/><path d="m549.778 295.556.444.888z" style="fill:#8382da;stroke:none" transform="translate(-38.667 -65.333)"/><path d="m116.444 295.556.445.888z" style="fill:#dcdcf4;stroke:none" transform="translate(-38.667 -65.333)"/><path d="m592 293.333 1.333 1.334z" style="fill:#8382da;stroke:none" transform="translate(-38.667 -65.333)"/><path d="m548.444 294.222.445.89z" style="fill:#dcdcf4;stroke:none" transform="translate(-38.667 -65.333)"/><path d="m116 293.333 1.333 1.334z" style="fill:#b5b4e9;stroke:none" transform="translate(-38.667 -65.333)"/><path d="M73.333 293.333 72 296z" style="fill:#8382da;stroke:none" transform="translate(-38.667 -65.333)"/><path d="m73.333 292 1.334 1.333L73.333 292M548 292l1.333 1.333z" style="fill:#b5b4e9;stroke:none" transform="translate(-38.667 -65.333)"/><path d="m116.444 291.556.445.888-.445-.888m474.223-.89L592 292z" style="fill:#8382da;stroke:none" transform="translate(-38.667 -65.333)"/><path d="m590.667 289.333 1.333 1.334z" style="fill:#dcdcf4;stroke:none" transform="translate(-38.667 -65.333)"/><path d="m589.333 288 1.334 1.333-1.334-1.333m-514.222 2.222.445.89-.445-.89m473.333 0 .445.89z" style="fill:#8382da;stroke:none" transform="translate(-38.667 -65.333)"/><path d="M74.667 288 76 289.333 74.667 288m43.11.889.445.889z" style="fill:#dcdcf4;stroke:none" transform="translate(-38.667 -65.333)"/><path d="m589.333 286.667 1.334 1.333z" style="fill:#b5b4e9;stroke:none" transform="translate(-38.667 -65.333)"/><path d="m547.111 287.556.445.888z" style="fill:#dcdcf4;stroke:none" transform="translate(-38.667 -65.333)"/><path d="m117.333 286.667 1.334 1.333z" style="fill:#b5b4e9;stroke:none" transform="translate(-38.667 -65.333)"/><path d="m589.333 285.333 1.334 1.334z" style="fill:#dcdcf4;stroke:none" transform="translate(-38.667 -65.333)"/><path d="m76.444 286.222.445.89z" style="fill:#8382da;stroke:none" transform="translate(-38.667 -65.333)"/><path d="m547.111 284.889.445.889z" style="fill:#b5b4e9;stroke:none" transform="translate(-38.667 -65.333)"/><path d="m117.778 284.889.444.889z" style="fill:#8382da;stroke:none" transform="translate(-38.667 -65.333)"/><path d="m76 284 1.333 1.333z" style="fill:#b5b4e9;stroke:none" transform="translate(-38.667 -65.333)"/><path d="m547.111 282.222.445.89-.445-.89m41.333 0 .445.89z" style="fill:#8382da;stroke:none" transform="translate(-38.667 -65.333)"/><path d="m588 280 1.333 1.333z" style="fill:#b5b4e9;stroke:none" transform="translate(-38.667 -65.333)"/><path d="m119.111 280.889.445.889z" style="fill:#dcdcf4;stroke:none" transform="translate(-38.667 -65.333)"/><path d="M77.333 277.333v4h1.334z" style="fill:#8382da;stroke:none" transform="translate(-38.667 -65.333)"/><path d="m545.333 276 1.334 1.333-1.334-1.333M588 276v4h1.333z" style="fill:#dcdcf4;stroke:none" transform="translate(-38.667 -65.333)"/><path d="M545.333 272v4h1.334l-1.334-4m-426.666 4v4H120Z" style="fill:#b5b4e9;stroke:none" transform="translate(-38.667 -65.333)"/><path d="M545.333 142.667V272h1.334v-89.333l-1.334-40M118.667 272v4H120Z" style="fill:#8382da;stroke:none" transform="translate(-38.667 -65.333)"/><path d="M77.333 141.333v136h1.334v-94.666z" style="fill:#b5b4e9;stroke:none" transform="translate(-38.667 -65.333)"/><path d="m544 137.333 1.333 1.334-1.333-1.334M120 140l1.333 1.333z" style="fill:#dcdcf4;stroke:none" transform="translate(-38.667 -65.333)"/><path d="m120.444 138.222.445.89z" style="fill:#b5b4e9;stroke:none" transform="translate(-38.667 -65.333)"/><path d="M77.333 136v5.333h1.334z" style="fill:#dcdcf4;stroke:none" transform="translate(-38.667 -65.333)"/><path d="m544.444 135.556.445.888z" style="fill:#b5b4e9;stroke:none" transform="translate(-38.667 -65.333)"/><path d="m544 133.333 1.333 1.334-1.333-1.334m42.667 0v4H588l-1.333-4m-466.223 2.223.445.888z" style="fill:#8382da;stroke:none" transform="translate(-38.667 -65.333)"/><path d="m121.333 132 1.334 1.333z" style="fill:#dcdcf4;stroke:none" transform="translate(-38.667 -65.333)"/><path d="m587.111 131.556.445.888z" style="fill:#b5b4e9;stroke:none" transform="translate(-38.667 -65.333)"/><path d="M542.667 130.667 544 132Z" style="fill:#dcdcf4;stroke:none" transform="translate(-38.667 -65.333)"/><path d="m121.333 130.667 1.334 1.333Z" style="fill:#8382da;stroke:none" transform="translate(-38.667 -65.333)"/><path d="m586.667 129.333 1.333 1.334z" style="fill:#dcdcf4;stroke:none" transform="translate(-38.667 -65.333)"/><path d="m79.111 130.222.445.89-.445-.89m463.556-.889 1.333 1.334z" style="fill:#8382da;stroke:none" transform="translate(-38.667 -65.333)"/><path d="m541.333 126.667 1.334 1.333-1.334-1.333M78.667 128 80 129.333 78.667 128m44 0 1.333 1.333z" style="fill:#b5b4e9;stroke:none" transform="translate(-38.667 -65.333)"/><path d="M122.667 126.667 124 128Z" style="fill:#8382da;stroke:none" transform="translate(-38.667 -65.333)"/><path d="m124 125.333 1.333 1.334-1.333-1.334m-45.333 1.334L80 128Z" style="fill:#dcdcf4;stroke:none" transform="translate(-38.667 -65.333)"/><path d="m540 124 1.333 1.333L540 124m45.778.889.444.889z" style="fill:#8382da;stroke:none" transform="translate(-38.667 -65.333)"/><path d="M538.667 122.667 540 124l-1.333-1.333m46.666 0 1.334 1.333z" style="fill:#b5b4e9;stroke:none" transform="translate(-38.667 -65.333)"/><path d="M80 122.667 81.333 124 80 122.667m45.333 0 1.334 1.333z" style="fill:#8382da;stroke:none" transform="translate(-38.667 -65.333)"/><path d="m585.333 121.333 1.334 1.334z" style="fill:#dcdcf4;stroke:none" transform="translate(-38.667 -65.333)"/><path d="m80 121.333 1.333 1.334z" style="fill:#b5b4e9;stroke:none" transform="translate(-38.667 -65.333)"/><path d="m80 120 1.333 1.333z" style="fill:#dcdcf4;stroke:none" transform="translate(-38.667 -65.333)"/><path d="m584 118.667 1.333 1.333Z" style="fill:#8382da;stroke:none" transform="translate(-38.667 -65.333)"/><path d="m534.667 118.667 4 4z" style="fill:#dcdcf4;stroke:none" transform="translate(-38.667 -65.333)"/><path d="m533.333 117.333 1.334 1.334-1.334-1.334m50.667 0 1.333 1.334-1.333-1.334m-454.667 1.334-2.666 4z" style="fill:#b5b4e9;stroke:none" transform="translate(-38.667 -65.333)"/><path d="m132 117.333 1.333 1.334z" style="fill:#dcdcf4;stroke:none" transform="translate(-38.667 -65.333)"/><path d="m81.333 117.333 1.334 1.334z" style="fill:#8382da;stroke:none" transform="translate(-38.667 -65.333)"/><path d="m584 116 1.333 1.333z" style="fill:#dcdcf4;stroke:none" transform="translate(-38.667 -65.333)"/><path d="m532 116 1.333 1.333z" style="fill:#8382da;stroke:none" transform="translate(-38.667 -65.333)"/><path d="m133.333 116 1.334 1.333-1.334-1.333m397.334 0 1.333 1.333z" style="fill:#b5b4e9;stroke:none" transform="translate(-38.667 -65.333)"/><path d="m132 116-1.333 2.667z" style="fill:#8382da;stroke:none" transform="translate(-38.667 -65.333)"/><path d="m81.333 116 1.334 1.333z" style="fill:#b5b4e9;stroke:none" transform="translate(-38.667 -65.333)"/><path d="m529.333 114.667 1.334 1.333Z" style="fill:#8382da;stroke:none" transform="translate(-38.667 -65.333)"/><path d="m528 114.667 1.333 1.333Z" style="fill:#b5b4e9;stroke:none" transform="translate(-38.667 -65.333)"/><path d="m137.333 114.667 1.334 1.333Z" style="fill:#dcdcf4;stroke:none" transform="translate(-38.667 -65.333)"/><path d="m136 114.667 1.333 1.333Z" style="fill:#b5b4e9;stroke:none" transform="translate(-38.667 -65.333)"/><path d="M134.667 114.667 136 116Z" style="fill:#8382da;stroke:none" transform="translate(-38.667 -65.333)"/><path d="M81.333 114.667 82.667 116Z" style="fill:#dcdcf4;stroke:none" transform="translate(-38.667 -65.333)"/><path d="m526.222 113.778.89.444-.89-.444m56.445-.445 1.333 1.334z" style="fill:#8382da;stroke:none" transform="translate(-38.667 -65.333)"/><path d="m524 113.333 1.333 1.334z" style="fill:#b5b4e9;stroke:none" transform="translate(-38.667 -65.333)"/><path d="m141.333 113.333 1.334 1.334-1.334-1.334m381.334 0 1.333 1.334z" style="fill:#dcdcf4;stroke:none" transform="translate(-38.667 -65.333)"/><path d="m140 113.333 1.333 1.334z" style="fill:#b5b4e9;stroke:none" transform="translate(-38.667 -65.333)"/><path d="m138.667 113.333 1.333 1.334Z" style="fill:#8382da;stroke:none" transform="translate(-38.667 -65.333)"/><path d="m582.667 112 1.333 1.333z" style="fill:#dcdcf4;stroke:none" transform="translate(-38.667 -65.333)"/><path d="m520.889 112.444.889.445z" style="fill:#8382da;stroke:none" transform="translate(-38.667 -65.333)"/><path d="M516 112v1.333h4z" style="fill:#b5b4e9;stroke:none" transform="translate(-38.667 -65.333)"/><path d="m149.333 112 1.334 1.333-1.334-1.333m365.334 0 1.333 1.333z" style="fill:#dcdcf4;stroke:none" transform="translate(-38.667 -65.333)"/><path d="M145.333 112v1.333h4z" style="fill:#b5b4e9;stroke:none" transform="translate(-38.667 -65.333)"/><path d="M498.667 110.667 500 112l-1.333-1.333M83.11 112.889l.445.889-.445-.89m60.445-.444.888.445z" style="fill:#8382da;stroke:none" transform="translate(-38.667 -65.333)"/><path d="M82.667 110.667 84 112Z" style="fill:#dcdcf4;stroke:none" transform="translate(-38.667 -65.333)"/><path d="m581.333 109.333 1.334 1.334z" style="fill:#b5b4e9;stroke:none" transform="translate(-38.667 -65.333)"/><path d="m84 109.333 1.333 1.334z" style="fill:#8382da;stroke:none" transform="translate(-38.667 -65.333)"/><path d="m581.333 108 1.334 1.333z" style="fill:#dcdcf4;stroke:none" transform="translate(-38.667 -65.333)"/><path d="m84 108 1.333 1.333z" style="fill:#b5b4e9;stroke:none" transform="translate(-38.667 -65.333)"/><path d="m580 106.667 1.333 1.333Z" style="fill:#8382da;stroke:none" transform="translate(-38.667 -65.333)"/><path d="m580 105.333 1.333 1.334-1.333-1.334m-496 1.334L85.333 108Z" style="fill:#dcdcf4;stroke:none" transform="translate(-38.667 -65.333)"/><path d="m578.667 104 1.333 1.333-1.333-1.333m-493.334 1.333 1.334 1.334z" style="fill:#8382da;stroke:none" transform="translate(-38.667 -65.333)"/><path d="m85.333 104 1.334 1.333z" style="fill:#dcdcf4;stroke:none" transform="translate(-38.667 -65.333)"/><path d="M578.667 102.667 580 104Z" style="fill:#b5b4e9;stroke:none" transform="translate(-38.667 -65.333)"/><path d="m577.333 101.333 1.334 1.334-1.334-1.334m-490.666 1.334L88 104Z" style="fill:#8382da;stroke:none" transform="translate(-38.667 -65.333)"/><path d="M86.667 101.333 88 102.667z" style="fill:#dcdcf4;stroke:none" transform="translate(-38.667 -65.333)"/><path d="m577.333 100 1.334 1.333z" style="fill:#b5b4e9;stroke:none" transform="translate(-38.667 -65.333)"/><path d="m576 98.667 1.333 1.333L576 98.667M88 100l1.333 1.333z" style="fill:#8382da;stroke:none" transform="translate(-38.667 -65.333)"/><path d="m576 97.333 1.333 1.334L576 97.333M88 98.667 89.333 100Z" style="fill:#dcdcf4;stroke:none" transform="translate(-38.667 -65.333)"/><path d="M574.667 96 576 97.333 574.667 96M89.333 97.333l1.334 1.334z" style="fill:#b5b4e9;stroke:none" transform="translate(-38.667 -65.333)"/><path d="M573.333 94.667 574.667 96l-1.334-1.333M90.667 96 92 97.333z" style="fill:#8382da;stroke:none" transform="translate(-38.667 -65.333)"/><path d="m573.333 93.333 1.334 1.334-1.334-1.334M90.667 94.667 92 96z" style="fill:#dcdcf4;stroke:none" transform="translate(-38.667 -65.333)"/><path d="m572 92 1.333 1.333L572 92M92 93.333l1.333 1.334z" style="fill:#b5b4e9;stroke:none" transform="translate(-38.667 -65.333)"/><path d="M569.333 89.333 572 92l-2.667-2.667M93.333 92l1.334 1.333z" style="fill:#8382da;stroke:none" transform="translate(-38.667 -65.333)"/><path d="M94.667 89.333 93.333 92z" style="fill:#dcdcf4;stroke:none" transform="translate(-38.667 -65.333)"/><path d="m96 88 1.333 1.333z" style="fill:#b5b4e9;stroke:none" transform="translate(-38.667 -65.333)"/><path d="m101.333 82.667-4 5.333z" style="fill:#8382da;stroke:none" transform="translate(-38.667 -65.333)"/><path d="m562.667 81.333 8 8z" style="fill:#dcdcf4;stroke:none" transform="translate(-38.667 -65.333)"/><path d="M102.667 81.333 104 82.667Z" style="fill:#b5b4e9;stroke:none" transform="translate(-38.667 -65.333)"/><path d="M106.667 78.667 108 80l-1.333-1.333M560 80l2.667 2.667z" style="fill:#8382da;stroke:none" transform="translate(-38.667 -65.333)"/><path d="M105.333 78.667 104 81.333Z" style="fill:#dcdcf4;stroke:none" transform="translate(-38.667 -65.333)"/><path d="m108 77.333 1.333 1.334L108 77.333m449.333 0L560 80z" style="fill:#b5b4e9;stroke:none" transform="translate(-38.667 -65.333)"/><path d="M110.667 76 112 77.333 110.667 76m444 0 2.666 2.667z" style="fill:#8382da;stroke:none" transform="translate(-38.667 -65.333)"/><path d="M553.333 74.667 554.667 76l-1.334-1.333m-444 1.333 1.334 1.333z" style="fill:#dcdcf4;stroke:none" transform="translate(-38.667 -65.333)"/><path d="M113.333 74.667 114.667 76l-1.334-1.333m438.667 0L553.333 76z" style="fill:#8382da;stroke:none" transform="translate(-38.667 -65.333)"/><path d="M550.667 73.333 552 74.667l-1.333-1.334M112 74.667 113.333 76z" style="fill:#b5b4e9;stroke:none" transform="translate(-38.667 -65.333)"/><path d="m116 73.333 1.333 1.334L116 73.333m433.333 0 1.334 1.334z" style="fill:#8382da;stroke:none" transform="translate(-38.667 -65.333)"/><path d="M114.667 73.333 116 74.667Z" style="fill:#b5b4e9;stroke:none" transform="translate(-38.667 -65.333)"/><path d="m113.333 73.333 1.334 1.334z" style="fill:#dcdcf4;stroke:none" transform="translate(-38.667 -65.333)"/><path d="m548 72 1.333 1.333z" style="fill:#b5b4e9;stroke:none" transform="translate(-38.667 -65.333)"/><path d="M118.667 72 120 73.333 118.667 72m428 0L548 73.333z" style="fill:#8382da;stroke:none" transform="translate(-38.667 -65.333)"/><path d="m117.333 72 1.334 1.333z" style="fill:#b5b4e9;stroke:none" transform="translate(-38.667 -65.333)"/><path d="M545.333 70.667 546.667 72l-1.334-1.333M116 72l1.333 1.333z" style="fill:#dcdcf4;stroke:none" transform="translate(-38.667 -65.333)"/><path d="M544 70.667 545.333 72z" style="fill:#b5b4e9;stroke:none" transform="translate(-38.667 -65.333)"/><path d="M121.333 70.667 122.667 72l-1.334-1.333m421.334 0L544 72z" style="fill:#8382da;stroke:none" transform="translate(-38.667 -65.333)"/><path d="M120 70.667 121.333 72z" style="fill:#b5b4e9;stroke:none" transform="translate(-38.667 -65.333)"/><path d="m542.222 69.778.89.444z" style="fill:#dcdcf4;stroke:none" transform="translate(-38.667 -65.333)"/><path d="m125.333 69.333 1.334 1.334-1.334-1.334m414.223.445.888.444z" style="fill:#8382da;stroke:none" transform="translate(-38.667 -65.333)"/><path d="m124 69.333 1.333 1.334z" style="fill:#b5b4e9;stroke:none" transform="translate(-38.667 -65.333)"/><path d="m537.333 68 1.334 1.333L537.333 68m-414.666 1.333L124 70.667Z" style="fill:#dcdcf4;stroke:none" transform="translate(-38.667 -65.333)"/><path d="m536 68 1.333 1.333z" style="fill:#b5b4e9;stroke:none" transform="translate(-38.667 -65.333)"/><path d="m130.222 68.444.89.445-.89-.445M534.667 68 536 69.333z" style="fill:#8382da;stroke:none" transform="translate(-38.667 -65.333)"/><path d="m531.556 67.111.888.445-.888-.445m-404 1.333.888.445z" style="fill:#dcdcf4;stroke:none" transform="translate(-38.667 -65.333)"/><path d="M529.333 66.667 530.667 68z" style="fill:#b5b4e9;stroke:none" transform="translate(-38.667 -65.333)"/><path d="m527.556 67.111.888.445z" style="fill:#8382da;stroke:none" transform="translate(-38.667 -65.333)"/><path d="M38.667 310.667V356c48.72.403 40 52.54 40 86.667 0 50.67-15.36 133.752 46.666 154.188 13.322 4.389 27.513 3.145 41.334 3.145v-44c-7.888 0-16.314.846-24-1.237-29.04-7.866-22.667-42.418-22.667-65.43 0-33.035 2.403-67.166-1.112-100-1.51-14.097-3.442-29.892-12.927-41.209-7.308-8.719-18.147-11.816-28.628-14.79V332c30.762-2.686 38.548-31.56 41.713-57.333 4.266-34.732.954-71.664.954-106.667 0-15.514-3.197-34.201 8.251-46.608 10.157-11.008 24.797-9.392 38.416-9.392V66.667c-13.985 0-27.843-.76-41.334 3.665C63.25 90.696 78.667 174.908 78.667 225.333c0 34.31 8.506 85.302-40 85.334m460-244v32c.002 3.489-1 9.478 2.138 11.963 4.098 3.245 12.939 1.066 17.862 1.601 11.8 1.284 22.23 9.58 25.615 21.102 4.087 13.91 2.385 29.689 2.385 44 0 33.738-4.212 70.617.57 104 3.35 23.38 13.942 48.31 40.763 50.667v2.667c-32.277 2.64-41.332 35.192-41.333 62.666v101.334c0 14.341 2.357 33.32-7.192 45.313-10.41 13.077-25.75 12.02-40.808 12.02v44c14.302 0 28.864 1.144 42.666-3.36C602.783 576.587 588 492.535 588 442.667c0-33.727-9.397-85.675 38.667-86.667v-45.333C578.55 310.534 588 257.377 588 224c0-51.788 14.53-134.397-49.333-154.203-12.991-4.028-26.58-3.13-40-3.13z" style="fill:#3c3ac5;stroke:none" transform="translate(-38.667 -65.333)"/><path d="m136.889 67.111.889.445z" style="fill:#8382da;stroke:none" transform="translate(-38.667 -65.333)"/><path d="M134.667 66.667 136 68Z" style="fill:#b5b4e9;stroke:none" transform="translate(-38.667 -65.333)"/><path d="M133.333 66.667 134.667 68z" style="fill:#dcdcf4;stroke:none" transform="translate(-38.667 -65.333)"/><path d="M517.333 65.333v1.334h5.334z" style="fill:#b5b4e9;stroke:none" transform="translate(-38.667 -65.333)"/><path d="M500 65.333v1.334h17.333z" style="fill:#8382da;stroke:none" transform="translate(-38.667 -65.333)"/><path d="M498.667 65.333 497.333 112h1.334z" style="fill:#b5b4e9;stroke:none" transform="translate(-38.667 -65.333)"/><path d="m497.333 65.333 1.334 1.334z" style="fill:#dcdcf4;stroke:none" transform="translate(-38.667 -65.333)"/><path d="M166.667 65.333 168 66.667z" style="fill:#b5b4e9;stroke:none" transform="translate(-38.667 -65.333)"/><path d="M148 65.333v1.334h18.667V112L168 78.667l-2.138-11.963z" style="fill:#8382da;stroke:none" transform="translate(-38.667 -65.333)"/><path d="M142.667 65.333v1.334H148Z" style="fill:#b5b4e9;stroke:none" transform="translate(-38.667 -65.333)"/></svg>