<svg xmlns="http://www.w3.org/2000/svg" width="512" height="512"><path d="M273.172 509.697c-11.953-4.933-18.076-10.602-23.254-21.53l-3.138-6.623-.31-18.75-.311-18.75h-87.668l-6.483-2.002c-20.396-6.3-28.728-20.563-28.728-49.18v-16.818H37.7l-5.74-1.495C19.49 371.3 9.815 363.547 4.153 352.265L.78 345.544.5 285.747.22 225.95l2.953-2.953c2.984-2.984 10.107-4.319 10.107-1.894 0 .582.403.81.895.506.493-.305 1.165.147 1.493 1.004.35.909 1.122 1.256 1.855.834.692-.398.941-.373.555.056-.386.428-.064 1.418.717 2.199l1.42 1.42.048 54.492.048 54.491 1.511 4.22c.831 2.32 1.612 4.607 1.735 5.081.397 1.53 5.199 6.247 5.98 5.873.417-.199 1.026.34 1.355 1.196.329.857.888 1.388 1.243 1.18.355-.207 1.71.026 3.01.517 1.327.5 44.442.892 98.258.892h95.893l3.51-1.466c1.93-.807 3.662-1.374 3.847-1.26.586.36 5.273-5.658 7.237-9.294l1.89-3.5v-151c0-148.471-.091-156.5-1.777-156.5-.462 0-.592-.403-.288-.895.305-.493-.147-1.165-1.004-1.493-.857-.329-1.315-.991-1.018-1.471.672-1.088-2.835-4.386-3.72-3.5-.355.355-.928-.092-1.274-.992s-1.031-1.389-1.524-1.084c-.492.304-.895.175-.895-.288 0-1.658-6.763-1.777-101-1.777s-101 .119-101 1.777c0 .463-.403.592-.895.288-.492-.305-1.164.147-1.493 1.004-.329.857-.99 1.315-1.471 1.018-1.087-.672-4.386 2.835-3.5 3.72.355.355-.091.929-.992 1.274-.9.346-1.388 1.031-1.084 1.524.304.492.002.895-.672.895-.675 0-.967.259-.65.575.316.317.172 1.977-.32 3.691-.49 1.714-.914 27.105-.94 56.425-.032 35.757-.386 53.309-1.074 53.309-.565 0-.786.39-.491.866.68 1.1-2.85 4.368-3.749 3.47-.368-.368-.669-.2-.669.372 0 1.857-5.958 2.365-9.04.77C.127 148.88.2 149.84.5 88.303l.28-57.758 3.193-6.74C8.106 15.078 15.315 7.87 24.04 3.736L30.78.544l101-.278 101-.277 6 2.163c11.427 4.12 18.61 10.686 23.898 21.845l3.102 6.547.31 18.75.311 18.75H354.07l6.417 1.982c20.541 6.345 28.793 20.445 28.793 49.2v16.818h85.58l5.74 1.495c12.47 3.248 22.145 11.002 27.807 22.283l3.373 6.722v315l-3.193 6.74c-4.133 8.725-11.342 15.934-20.066 20.067l-6.74 3.193-101.5.234-101.5.233zm205.858-18.673c.688-.172 1.25-.763 1.25-1.313 0-.55.281-.72.624-.376.344.343 1.503-.37 2.577-1.584 1.073-1.214 1.606-1.532 1.183-.707l-.768 1.5 1.681-1.363c.925-.75 1.454-1.732 1.175-2.182-.278-.45.4-1.452 1.505-2.226 1.106-.775 1.713-1.706 1.35-2.069s-.21-.66.34-.66c1.66 0 1.629 2.38 2-153.199l.359-150.699-1.54-4.3c-.846-2.367-1.64-4.69-1.762-5.164-.397-1.53-5.2-6.247-5.98-5.873-.417.199-1.027-.34-1.356-1.196-.328-.857-.888-1.388-1.243-1.18-.354.206-1.722-.03-3.04-.528-1.317-.497-21.904-1.007-45.75-1.132l-43.355-.23v45.5l1.75.051c11.008.316 28.25 5.827 28.25 9.03 0 .57.423.777.939.458.516-.32 1.402.217 1.97 1.19.566.975 1.044 1.368 1.06.873.017-.494 2.844 1.947 6.281 5.425 3.438 3.478 6.138 6.695 6 7.149-.137.454.148.825.635.825 1.124 0 4.449 5.021 4.449 6.72 0 .704.45 1.28 1 1.28s.721.278.38.619c-.34.34.06 1.298.891 2.129.83.83 1.273 2.127.984 2.88-.29.755-.135 1.372.343 1.372 2.192 0 3.914 15.685 3.128 28.5-.226 3.694-3.314 13.5-4.25 13.5-.51 0-.65.45-.31 1s.115 1-.5 1-.862.414-.55.92c.313.505-.09 1.576-.893 2.38-.804.804-1.254 1.67-1 1.924.255.254-.645 1.658-2 3.12-1.353 1.46-2.145 2.668-1.759 2.683.386.015-.873 1.403-2.798 3.084-1.925 1.682-2.937 2.768-2.25 2.414 1.91-.982 1.493-.048-.922 2.07-1.445 1.268-1.919 1.403-1.415.405.415-.825-.62.075-2.302 2-1.681 1.925-3.07 3.184-3.084 2.798-.015-.387-1.208.393-2.653 1.73-1.444 1.34-3.019 2.191-3.5 1.894-.48-.297-.874-.037-.874.578s-.45.84-1 .5c-.55-.34-1-.115-1 .5s-.411.864-.914.553c-.503-.311-1.073-.093-1.265.485-.193.578-1.356 1.127-2.586 1.22-1.229.092-2.235.57-2.235 1.062 0 .491-.62.656-1.378.365-.758-.29-1.802-.105-2.32.413-.776.776-7.713 1.934-13.052 2.178-.962.044-1.25 5.421-1.25 23.39v23.334l25.25.118c13.888.065 25.683.034 26.212-.07.529-.104 1.5.547 2.159 1.448.658.9 1.576 1.72 2.038 1.82.463.101.729.521.591.934-.137.412.2.75.75.75s.929.337.841.75c-.087.412.215 1.611.67 2.664 1.09 2.517-2.163 8.605-5.51 10.315-1.875.957-8.823 1.214-27.778 1.024l-25.277-.253.277 12.916c.2 9.33-.054 13.027-.917 13.315-.656.219-.946 1.044-.643 1.834.303.789.026 1.435-.615 1.435s-.888.45-.548 1c.34.55.115 1-.5 1s-.84.45-.5 1c.34.55.156 1-.41 1-.565 0-.768.675-.451 1.5l.575 1.5h56.341l2.24 1.568c1.231.863 1.98 1.988 1.663 2.5-.317.513-.1.932.483.932s.988.337.9.75c-.087.412.19 1.545.614 2.518 1.15 2.632-1.36 7.703-4.875 9.846l-3.08 1.878-86.336.004-86.336.004.519 16.75c.58 18.74.63 19.25 1.879 19.25.49 0 .643.403.339.896-.304.492.148 1.164 1.004 1.493.857.328 1.315.99 1.018 1.47-.672 1.088 2.835 4.386 3.72 3.5.356-.354.929.092 1.274.993.346.9 1.032 1.388 1.524 1.084.492-.305.895-.002.895.672s.254.972.563.662c.31-.31 1.773-.193 3.25.258 2.429.742 193.974.696 196.937-.047zM353.96 422.896c.726-.603 1.321-.785 1.321-.403s.711-.018 1.58-.887c.87-.87 1.883-1.447 2.25-1.283.582.258 7.64-6.4 7.426-7.006-.316-.894 1.148-4.273 1.851-4.273.495 0 .874-66.409.874-153 0-100.34-.341-153-.99-153-.545 0-.99-.66-.99-1.465 0-2.29-5.888-8.427-10.406-10.844l-4.095-2.191-43.25-.3-43.25-.299V133.044h49.1l2.933 1.517c1.613.834 3.616 2.837 4.45 4.45l1.517 2.934v51.35c0 38.605-.298 51.647-1.2 52.549-.66.66-.905 1.2-.545 1.2.991 0-4.605 5.48-5.755 5.635-.55.074-12.137.186-25.75.25l-24.75.115v46h25c16 0 25 .36 25 1 0 .55.338.947.75.881 2.24-.353 3.473.435 5.261 3.369 2.137 3.505 2.647 7.75.93 7.75-.582 0-.78.45-.44 1s.114 1-.5 1c-.616 0-.872.399-.57.887.3.487-.123 1.442-.942 2.122-.819.68-1.496.843-1.504.363-.008-.48-.442-.197-.962.628l-.947 1.5-25.538.312-25.538.313-.101 7.187c-.056 3.953-.025 8.605.068 10.337.093 1.732-.319 3.45-.915 3.819-.597.369-.843 1.06-.548 1.538.295.477-.373 3.258-1.483 6.18-1.111 2.923-2.02 5.426-2.02 5.564 0 .137 12.172.25 27.049.25h27.05l2.933 1.517c4.333 2.24 8.283 11.483 4.908 11.483-.582 0-.78.45-.44 1s.114 1-.5 1c-.616 0-.872.399-.57.887.3.487-.123 1.442-.942 2.122-.819.68-1.496.843-1.504.363-.008-.48-.442-.197-.963.628l-.948 1.5-87.092.271-87.092.272.185 16.478c.101 9.064.576 16.479 1.055 16.479.478 0 .87.648.87 1.44 0 1.52 7.505 10.721 8.189 10.038.22-.22 1.73.443 3.355 1.474l2.956 1.873 96.429.062c68.574.044 96.81-.255 97.75-1.035zm43.493-122.246c.38.235.977-.038 1.328-.606.351-.568 1.026-.793 1.5-.5.474.293 1.15.068 1.5-.5.351-.568 1.057-.774 1.57-.457.511.316.93.195.93-.268 0-.777 4.58-3.906 6.199-4.235 1.109-.225 8.387-7.479 8.135-8.108-.125-.312.848-1.727 2.16-3.143 1.314-1.416 2.114-2.848 1.78-3.182-.334-.334-.082-.607.56-.607.641 0 1.08-.338.976-.75-.228-.896 1.222-7.406 1.908-8.566.751-1.272.567-15.415-.218-16.684-.385-.623-.434-1.4-.109-1.725.326-.325.09-1.195-.522-1.933s-.828-1.342-.479-1.342c.35 0-.501-1.8-1.89-4-1.389-2.2-2.182-4.007-1.762-4.015.42-.008.087-.442-.738-.964-.825-.521-1.511-1.302-1.525-1.735-.033-.99-6.463-7.373-6.508-6.46-.018.371-.806-.25-1.75-1.378-.944-1.129-2.074-2.095-2.51-2.147-2.08-.247-6.707-2.649-6.707-3.481 0-.516-.386-.7-.857-.408-.472.291-2.385.066-4.25-.502-1.866-.567-4.405-1.167-5.643-1.333l-2.25-.302v80.456l4.242-.775c2.332-.427 4.551-.584 4.93-.35zM303.28 193.044v-40h-37v80h37zM70.263 304.028c-1.839-1.641-2.982-2.984-2.54-2.984.441 0 .247-.67-.432-1.487-2.211-2.664 2.193-11.747 5.22-10.763.423.137.77-.2.77-.75 0-.656 21-1 61-1 42.265 0 61 .325 61 1.059 0 .582.384.821.854.53 2.697-1.666 7.357 8.246 5.134 10.924-.678.818-.873 1.487-.431 1.487.441 0-.702 1.343-2.54 2.984l-3.343 2.984H73.605Zm1.708-54.436c-.8-.8-1.803-1.137-2.232-.75-.429.386-.473.167-.098-.487.375-.653-.116-1.652-1.09-2.22-.974-.566-1.378-1.044-.898-1.06.48-.017.317-.7-.362-1.518-2.222-2.678 2.437-12.59 5.135-10.923.47.29.854.051.854-.531 0-.734 18.734-1.06 61-1.06s61 .326 61 1.06c0 .582.385.821.855.53 2.697-1.666 7.357 8.246 5.134 10.924-.678.818-.873 1.487-.431 1.487.441 0-.71 1.35-2.558 3l-3.36 3H73.423ZM3.328 194.246.28 191.198v-4.143c0-6.945 5.131-12.113 10.3-10.374 1.21.408 2.802.847 3.538.976 1.983.35 5.197 3.522 4.58 4.52-.295.477-.072.867.495.867 5.76 0-2.514 12.868-8.817 13.714l-4 .536zm69.952-10.202c0-.55-.346-.888-.77-.75-2.877.935-7.871-9.118-5.314-10.698.614-.38.858-1.11.542-1.621-.317-.512-.073-.931.542-.931s.85-.434.523-.964c-.328-.53.32-1.88 1.44-3 1.12-1.12 2.037-2.261 2.037-2.536v-1.312c0-.446.918-1.796 2.04-3 1.12-1.203 1.77-2.188 1.443-2.188-.328 0 .202-1.35 1.176-3 .975-1.65 2.152-3 2.616-3 .464 0 .575-.434.248-.964-.328-.53.283-1.842 1.357-2.916 1.075-1.075 1.691-2.216 1.37-2.537-.32-.32-.032-.583.643-.583.674 0 .99-.382.7-.849-.288-.466.473-1.918 1.692-3.226 1.218-1.308 2.103-2.501 1.965-2.652-.665-.727-.067-2.092 1.79-4.085 1.12-1.203 1.77-2.188 1.443-2.188-.328 0 .202-1.35 1.176-3 .975-1.65 2.152-3 2.616-3 .464 0 .575-.434.248-.964-.328-.53.283-1.842 1.357-2.916 1.075-1.075 1.691-2.216 1.37-2.537-.32-.32-.032-.583.643-.583.674 0 .99-.382.7-.849-.288-.466.37-1.808 1.463-2.98 1.092-1.173 1.977-2.366 1.965-2.652-.011-.285-.02-.884-.02-1.33 0-.447.917-1.797 2.038-3 1.122-1.204 1.771-2.19 1.444-2.19-.328 0 .202-1.35 1.176-3 .975-1.65 2.152-3 2.616-3 .464 0 .575-.433.248-.963-.328-.53.283-1.842 1.357-2.916 1.075-1.075 1.691-2.216 1.37-2.537-.32-.32-.032-.583.643-.583.674 0 .99-.382.7-.849-.288-.466.37-1.808 1.463-2.98 1.092-1.173 1.977-2.366 1.965-2.652-.011-.285-.02-.884-.02-1.33 0-.447 1.012-1.899 2.25-3.227 1.237-1.328 2.137-2.538 2-2.689-.646-.706-.096-2.062 1.555-3.835.994-1.066 1.95-2.388 2.128-2.938.954-2.972 1.553-3.7 4.138-5.037 3.781-1.956 7.402-1.847 9.535.287.963.962 1.895 1.637 2.072 1.5.177-.138.28.047.232.41-.05.363.635 1.066 1.52 1.561.887.496 1.35 1.324 1.031 1.84-.319.517-.028.939.646.939s.953.273.62.606c-.334.334.25 1.527 1.298 2.652 1.048 1.125 1.67 2.427 1.38 2.893-.288.467-.144.849.32.849.463 0 1.64 1.35 2.615 3 .975 1.65 1.504 3 1.177 3-.328 0 .322.985 1.443 2.188 1.122 1.204 2.04 2.554 2.04 3 0 1.547.396 2.321 2.159 4.213.974 1.046 1.535 2.284 1.247 2.75-.289.467.027.849.7.849.675 0 .964.262.643.583-.32.321.296 1.462 1.37 2.537 1.074 1.074 1.685 2.386 1.358 2.916-.328.53-.216.964.248.964.463 0 1.64 1.35 2.615 3 .975 1.65 1.504 3 1.177 3-.328 0 .322.985 1.443 2.188 1.122 1.204 2.04 2.554 2.04 3 0 1.547.396 2.321 2.159 4.213.974 1.046 1.535 2.284 1.247 2.75-.289.467-.145.849.319.849.463 0 1.64 1.35 2.615 3 .975 1.65 1.504 3 1.177 3-.328 0 .322.985 1.443 2.188 1.122 1.204 2.04 2.554 2.04 3 0 1.547.396 2.321 2.159 4.213.974 1.046 1.535 2.284 1.247 2.75-.289.467.027.849.7.849.675 0 .954.273.62.606-.333.334.251 1.527 1.299 2.652 1.048 1.125 1.67 2.427 1.38 2.893-.288.467-.144.849.32.849.463 0 1.64 1.35 2.615 3 .975 1.65 1.504 3 1.177 3-.328 0 .322.985 1.443 2.188 1.122 1.204 2.04 2.554 2.04 3 0 1.547.396 2.321 2.159 4.213.974 1.046 1.535 2.284 1.247 2.75-.289.467-.022.849.593.849s.86.419.543.93c-.316.513-.073 1.242.542 1.622 1.617 1 .28 6.43-2.245 9.119-1.172 1.247-2.515 2.03-2.985 1.74-.47-.291-.855-.053-.855.53 0 .734-18.733 1.059-61 1.059-40 0-61-.344-61-1zm100.667-20.5c0-.825-.45-1.5-1-1.5s-.738-.263-.417-.583c.321-.321-.295-1.463-1.37-2.537-1.074-1.074-1.685-2.387-1.357-2.917.327-.53.216-.963-.248-.963-.464 0-1.641-1.35-2.616-3-.974-1.65-1.504-3-1.176-3 .327 0-.307-.968-1.41-2.152-1.102-1.183-1.768-2.533-1.48-3 .29-.466-.026-.848-.7-.848-.675 0-.964-.263-.643-.583.321-.321-.295-1.463-1.37-2.537-1.074-1.074-1.685-2.387-1.357-2.917.327-.53.044-.963-.63-.963-.675 0-.964-.263-.643-.583.321-.321-.295-1.463-1.37-2.537-1.074-1.074-1.685-2.387-1.357-2.917.327-.53.216-.963-.248-.963-.464 0-1.641-1.35-2.616-3-.974-1.65-1.504-3-1.176-3 .327 0-.307-.968-1.41-2.152-1.102-1.183-1.768-2.533-1.48-3 .29-.466-.026-.848-.7-.848-.675 0-.964-.263-.643-.583.321-.321-.295-1.463-1.37-2.537-1.074-1.074-1.685-2.387-1.357-2.917.327-.53.216-.963-.248-.963-.464 0-1.641-1.35-2.616-3-.974-1.65-1.504-3-1.176-3 .327 0-.307-.968-1.41-2.152-1.102-1.183-1.768-2.533-1.48-3 .29-.466.022-.848-.593-.848s-.84-.45-.5-1c.342-.552-.378-1-1.607-1-1.225 0-1.938.288-1.586.64.77.77-2.38 6.36-3.581 6.36-.464 0-.576.433-.248.963.327.53-.284 1.843-1.358 2.917-1.074 1.074-1.69 2.216-1.37 2.537.321.32.032.583-.642.583s-.99.382-.701.848c.288.467-.333 1.77-1.381 2.894-1.048 1.125-1.632 2.318-1.299 2.651.334.334.055.607-.62.607-.673 0-.989.382-.7.848.288.467-.378 1.817-1.48 3-1.103 1.184-1.737 2.152-1.41 2.152.328 0-.201 1.35-1.176 3-.975 1.65-2.152 3-2.615 3-.464 0-.608.382-.32.848.289.467-.332 1.77-1.38 2.894-1.048 1.125-1.632 2.318-1.299 2.651.334.334.055.607-.62.607-.673 0-.989.382-.7.848.288.467-.333 1.77-1.381 2.894-1.048 1.125-1.632 2.318-1.299 2.651.334.334.055.607-.62.607-.673 0-.989.382-.7.848.288.467-.248 1.722-1.191 2.79-.944 1.067-1.853 2.597-2.02 3.401-.168.803-.949 1.955-1.735 2.56-.786.604-1.137 1.392-.779 1.75.359.358.1.65-.574.65-.674 0-.99.383-.701.85.288.466-.333 1.768-1.381 2.893-1.048 1.125-1.632 2.318-1.299 2.651.334.334.157.607-.393.607s-1 .675-1 1.5v1.5h79.333z" style="fill:#3c3ac5;fill-opacity:1"/></svg>