<svg xmlns="http://www.w3.org/2000/svg" width="47.515" height="88.235"><path d="m30.616 94.64-1.016-.474-.858-.882c-.471-.486-1.083-1.337-1.36-1.891l-.502-1.008V11.604l.502-1.008c.277-.554.889-1.405 1.36-1.89l.858-.883 1.016-.473 1.016-.473h38.012l1.015.473 1.016.473.858.882c.472.486 1.084 1.337 1.36 1.891l.502 1.008v78.781l-.502 1.008c-.276.554-.888 1.405-1.36 1.89l-.858.883-1.016.473-1.015.473H31.632Zm23.433-3.263c1.116-.753 1.466-2.061.864-3.227l-.283-.546-.668-.317-.668-.317H47.981l-.668.317-.668.317-.283.546c-.602 1.166-.252 2.474.865 3.227l.656.442h5.509zm17.34-40.383V17.443H29.886l-.05 33.358c-.027 18.346-.008 33.467.043 33.6l.093.244 20.708-.05 20.71-.049zM55.1 11.14v-.291l-4.35-.052-4.351-.053-.18.181c-.1.1-.122.278-.05.396l.133.214 4.399-.052 4.398-.052zm-20.378-.11c1.067-1.068-.548-2.716-1.668-1.702l-.355.32v.538c0 .692.462 1.148 1.164 1.148.305 0 .691-.137.859-.305zm3.685-.389c.392-.392.383-.533-.055-.93l-.36-.326-.312.12c-.171.065-.366.29-.432.499l-.12.379.233.281c.304.366.665.358 1.046-.023z" style="fill:#413fc5" transform="translate(-26.88 -6.877)"/></svg>