<svg xmlns="http://www.w3.org/2000/svg" width="512" height="512"><path d="M295.003 85.978c-21.86 4.708-25.483 47.295-30.709 65.482-19.819 68.969-39.582 137.959-59.15 207-4.278 15.092-12.85 33.209-12.1 49 .57 12.035 11.194 20.265 22.96 18.814 7.412-.914 13.597-6.048 16.53-12.814 7.167-16.527 10.481-35.694 15.47-53 20.256-70.288 40.088-140.697 60.29-211 3.752-13.056 12.782-31.36 11.369-45-1.216-11.742-12.928-21.008-24.66-18.482m-173 65.12c-10.299 2.976-18.695 15.057-26 22.362l-56 56c-8.734 8.733-20.098 17.162-17.671 31 1.94 11.068 14.173 19.501 21.671 27l60 60c8.817 8.816 18.261 19.08 32 13.855 11.58-4.403 16.483-19.402 10.005-29.855-4.68-7.554-12.753-13.749-19.005-20l-36-36c-3.958-3.958-16.944-13.092-16.944-19 0-6.337 14.657-16.714 18.944-21l36-36c5.826-5.826 13.608-11.691 17.583-19 8.783-16.152-7.486-34.304-24.583-29.362m256-.105c-12.908 3.117-18.832 19.449-12.005 30.467 4.68 7.554 12.753 13.748 19.005 20l36 36c3.958 3.958 16.945 13.092 16.945 19 0 6.123-13.822 15.877-17.945 20l-36 36c-5.944 5.943-13.554 11.815-18.005 19-9.551 15.413 4.428 32.517 21.005 30.895 11.104-1.087 19.686-13.581 27-20.895l58-58c8.667-8.668 20.078-17.279 17.671-31-1.494-8.525-8.885-14.214-14.67-20l-36-36-32-32c-8.338-8.338-16.165-16.567-29-13.467z" style="fill:#3b39c5;stroke:none"/></svg>